<svg width="90" height="90" viewBox="0 0 90 90" fill="none" xmlns="http://www.w3.org/2000/svg">
<path fill-rule="evenodd" clip-rule="evenodd" d="M22.5 15H67.5C71.4782 15 75.2936 16.5804 78.1066 19.3934C80.9196 22.2064 82.5 26.0218 82.5 30V67.5C82.5 71.4782 80.9196 75.2936 78.1066 78.1066C75.2936 80.9196 71.4782 82.5 67.5 82.5H22.5C18.5218 82.5 14.7064 80.9196 11.8934 78.1066C9.08035 75.2936 7.5 71.4782 7.5 67.5V30C7.5 26.0218 9.08035 22.2064 11.8934 19.3934C14.7064 16.5804 18.5218 15 22.5 15ZM22.5 22.5C20.5109 22.5 18.6032 23.2902 17.1967 24.6967C15.7902 26.1032 15 28.0109 15 30V67.5C15 69.4891 15.7902 71.3968 17.1967 72.8033C18.6032 74.2098 20.5109 75 22.5 75H67.5C69.4891 75 71.3968 74.2098 72.8033 72.8033C74.2098 71.3968 75 69.4891 75 67.5V30C75 28.0109 74.2098 26.1032 72.8033 24.6967C71.3968 23.2902 69.4891 22.5 67.5 22.5H22.5Z" fill="#D9D9D9"/>
<path fill-rule="evenodd" clip-rule="evenodd" d="M11.25 37.5C11.25 36.5054 11.6451 35.5516 12.3483 34.8484C13.0516 34.1451 14.0054 33.75 15 33.75H75C75.9946 33.75 76.9484 34.1451 77.6517 34.8484C78.3549 35.5516 78.75 36.5054 78.75 37.5C78.75 38.4946 78.3549 39.4484 77.6517 40.1516C76.9484 40.8549 75.9946 41.25 75 41.25H15C14.0054 41.25 13.0516 40.8549 12.3483 40.1516C11.6451 39.4484 11.25 38.4946 11.25 37.5ZM30 7.5C30.9946 7.5 31.9484 7.89509 32.6516 8.59835C33.3549 9.30161 33.75 10.2554 33.75 11.25V26.25C33.75 27.2446 33.3549 28.1984 32.6516 28.9016C31.9484 29.6049 30.9946 30 30 30C29.0054 30 28.0516 29.6049 27.3484 28.9016C26.6451 28.1984 26.25 27.2446 26.25 26.25V11.25C26.25 10.2554 26.6451 9.30161 27.3484 8.59835C28.0516 7.89509 29.0054 7.5 30 7.5ZM60 7.5C60.9946 7.5 61.9484 7.89509 62.6517 8.59835C63.3549 9.30161 63.75 10.2554 63.75 11.25V26.25C63.75 27.2446 63.3549 28.1984 62.6517 28.9016C61.9484 29.6049 60.9946 30 60 30C59.0054 30 58.0516 29.6049 57.3484 28.9016C56.6451 28.1984 56.25 27.2446 56.25 26.25V11.25C56.25 10.2554 56.6451 9.30161 57.3484 8.59835C58.0516 7.89509 59.0054 7.5 60 7.5Z" fill="#D9D9D9"/>
<path d="M30 48.75C30 49.7446 29.6049 50.6984 28.9016 51.4016C28.1984 52.1049 27.2446 52.5 26.25 52.5C25.2554 52.5 24.3016 52.1049 23.5984 51.4016C22.8951 50.6984 22.5 49.7446 22.5 48.75C22.5 47.7554 22.8951 46.8016 23.5984 46.0984C24.3016 45.3951 25.2554 45 26.25 45C27.2446 45 28.1984 45.3951 28.9016 46.0984C29.6049 46.8016 30 47.7554 30 48.75ZM30 63.75C30 64.7446 29.6049 65.6984 28.9016 66.4017C28.1984 67.1049 27.2446 67.5 26.25 67.5C25.2554 67.5 24.3016 67.1049 23.5984 66.4017C22.8951 65.6984 22.5 64.7446 22.5 63.75C22.5 62.7554 22.8951 61.8016 23.5984 61.0983C24.3016 60.3951 25.2554 60 26.25 60C27.2446 60 28.1984 60.3951 28.9016 61.0983C29.6049 61.8016 30 62.7554 30 63.75ZM48.75 48.75C48.75 49.7446 48.3549 50.6984 47.6516 51.4016C46.9484 52.1049 45.9946 52.5 45 52.5C44.0054 52.5 43.0516 52.1049 42.3484 51.4016C41.6451 50.6984 41.25 49.7446 41.25 48.75C41.25 47.7554 41.6451 46.8016 42.3484 46.0984C43.0516 45.3951 44.0054 45 45 45C45.9946 45 46.9484 45.3951 47.6516 46.0984C48.3549 46.8016 48.75 47.7554 48.75 48.75ZM48.75 63.75C48.75 64.7446 48.3549 65.6984 47.6516 66.4017C46.9484 67.1049 45.9946 67.5 45 67.5C44.0054 67.5 43.0516 67.1049 42.3484 66.4017C41.6451 65.6984 41.25 64.7446 41.25 63.75C41.25 62.7554 41.6451 61.8016 42.3484 61.0983C43.0516 60.3951 44.0054 60 45 60C45.9946 60 46.9484 60.3951 47.6516 61.0983C48.3549 61.8016 48.75 62.7554 48.75 63.75ZM67.5 48.75C67.5 49.7446 67.1049 50.6984 66.4017 51.4016C65.6984 52.1049 64.7446 52.5 63.75 52.5C62.7554 52.5 61.8016 52.1049 61.0983 51.4016C60.3951 50.6984 60 49.7446 60 48.75C60 47.7554 60.3951 46.8016 61.0983 46.0984C61.8016 45.3951 62.7554 45 63.75 45C64.7446 45 65.6984 45.3951 66.4017 46.0984C67.1049 46.8016 67.5 47.7554 67.5 48.75ZM67.5 63.75C67.5 64.7446 67.1049 65.6984 66.4017 66.4017C65.6984 67.1049 64.7446 67.5 63.75 67.5C62.7554 67.5 61.8016 67.1049 61.0983 66.4017C60.3951 65.6984 60 64.7446 60 63.75C60 62.7554 60.3951 61.8016 61.0983 61.0983C61.8016 60.3951 62.7554 60 63.75 60C64.7446 60 65.6984 60.3951 66.4017 61.0983C67.1049 61.8016 67.5 62.7554 67.5 63.75Z" fill="#D9D9D9"/>
</svg>
