<svg width="90" height="90" viewBox="0 0 90 90" fill="none" xmlns="http://www.w3.org/2000/svg">
<path d="M45 78.7501C52.4884 78.7489 59.7638 76.2574 65.6808 71.6676C71.5978 67.0779 75.8203 60.6506 77.6836 53.3977C79.5468 46.1448 78.945 38.4782 75.9729 31.6048C73.0008 24.7315 67.8271 19.0418 61.2665 15.4315C54.7058 11.8212 47.1308 10.4953 39.7339 11.6626C32.337 12.83 25.5384 16.4242 20.4084 21.8794C15.2784 27.3347 12.1084 34.3411 11.3975 41.7957C10.6865 49.2503 12.4749 56.7297 16.4812 63.0563L11.25 78.7501L26.9438 73.5188C32.3422 76.945 38.6061 78.7598 45 78.7501Z" fill="#D9D9D9" stroke="#D9D9D9" stroke-width="2" stroke-linecap="round" stroke-linejoin="round"/>
</svg>
