<svg width="600" height="438" viewBox="0 0 600 438" fill="none" xmlns="http://www.w3.org/2000/svg">
<rect x="1.25" y="99.25" width="597.5" height="197.5" stroke="#CD7D69" stroke-width="2.5"/>
<mask id="path-2-outside-1_7_201" maskUnits="userSpaceOnUse" x="197.927" y="240.872" width="362.522" height="54.9975" fill="black">
<rect fill="white" x="197.927" y="240.872" width="362.522" height="54.9975"/>
<path d="M204.044 257.184C204.062 255.205 204.569 253.403 205.564 251.778C206.579 250.153 207.925 248.861 209.6 247.903C211.297 246.924 213.156 246.434 215.177 246.434H238.177L238.115 252.997H215.115C213.906 252.997 212.86 253.424 211.977 254.278C211.094 255.132 210.647 256.163 210.636 257.371L210.607 260.434C210.596 261.538 211.025 262.486 211.892 263.277C212.76 264.069 213.797 264.465 215.006 264.465H229.162C231.204 264.465 233.053 264.954 234.711 265.933C236.368 266.892 237.679 268.194 238.642 269.84C239.627 271.464 240.11 273.266 240.091 275.246L240.045 280.089C240.026 282.068 239.509 283.881 238.494 285.526C237.499 287.151 236.164 288.453 234.488 289.432C232.812 290.391 230.953 290.87 228.912 290.87H203.755L203.818 284.276H228.974C230.203 284.276 231.249 283.87 232.111 283.058C232.994 282.224 233.441 281.224 233.452 280.058L233.497 275.277C233.508 274.11 233.08 273.11 232.213 272.277C231.367 271.444 230.329 271.027 229.1 271.027H214.944C212.923 271.027 211.073 270.558 209.394 269.621C207.737 268.663 206.416 267.381 205.431 265.777C204.467 264.173 203.994 262.402 204.012 260.465L204.044 257.184ZM257.318 265.184C257.335 263.329 258.027 261.757 259.394 260.465C260.76 259.153 262.392 258.496 264.287 258.496H277.787C279.517 258.496 281.075 258.923 282.463 259.778C283.871 260.611 284.986 261.746 285.805 263.184C286.646 264.6 287.058 266.173 287.042 267.902L287.033 268.808C287.017 270.517 286.575 272.079 285.708 273.496C284.861 274.891 283.725 276.016 282.301 276.87C280.897 277.704 279.33 278.12 277.601 278.12H267.539L267.601 271.558H277.726C278.476 271.558 279.114 271.287 279.64 270.746C280.187 270.204 280.464 269.548 280.471 268.777L280.479 267.902C280.487 267.111 280.222 266.444 279.686 265.902C279.17 265.361 278.537 265.09 277.787 265.09H263.912L263.755 281.714C263.748 282.422 263.982 283.026 264.456 283.526C264.931 284.026 265.512 284.276 266.199 284.276H284.605L284.543 290.87H266.137C264.47 290.87 262.953 290.464 261.586 289.651C260.219 288.818 259.135 287.714 258.336 286.339C257.537 284.943 257.145 283.412 257.161 281.745L257.318 265.184ZM302.356 258.496H306.575L306.689 246.434H313.283L313.169 258.496H323.137L323.075 265.09H313.106L312.949 281.683C312.942 282.391 313.207 283.006 313.744 283.526C314.301 284.026 314.966 284.276 315.737 284.276H322.893L322.83 290.87H315.58C313.872 290.87 312.313 290.464 310.904 289.651C309.516 288.818 308.402 287.714 307.561 286.339C306.741 284.943 306.339 283.401 306.355 281.714L306.512 265.09H302.294L302.356 258.496ZM339.446 246.434H345.477L359.654 263.965L374.164 246.434H380.196L379.774 290.87H373.18L373.495 257.653L362.337 271.027H356.869L345.933 257.653L345.618 290.87H339.024L339.446 246.434ZM397.383 270.121C397.404 267.975 397.943 266.027 399.001 264.277C400.08 262.527 401.51 261.132 403.291 260.09C405.072 259.028 407.035 258.496 409.181 258.496H427.244L426.937 290.87H420.343L420.587 265.09H409.119C407.723 265.09 406.52 265.59 405.511 266.59C404.501 267.569 403.99 268.767 403.977 270.183L403.892 279.12C403.878 280.537 404.367 281.756 405.357 282.776C406.348 283.776 407.541 284.276 408.937 284.276H416.655L416.593 290.87H408.874C406.728 290.87 404.775 290.349 403.014 289.307C401.253 288.245 399.85 286.828 398.804 285.058C397.779 283.287 397.277 281.329 397.297 279.183L397.383 270.121ZM442.781 258.496H447L447.114 246.434H453.708L453.594 258.496H463.562L463.5 265.09H453.531L453.374 281.683C453.367 282.391 453.632 283.006 454.169 283.526C454.726 284.026 455.391 284.276 456.162 284.276H463.318L463.255 290.87H456.005C454.297 290.87 452.738 290.464 451.329 289.651C449.941 288.818 448.827 287.714 447.986 286.339C447.166 284.943 446.764 283.401 446.78 281.714L446.937 265.09H442.719L442.781 258.496ZM478.708 270.183C478.728 268.038 479.288 266.079 480.389 264.309C481.489 262.538 482.95 261.132 484.772 260.09C486.595 259.028 488.61 258.496 490.819 258.496H509.037L508.975 265.09H490.756C489.277 265.09 488.001 265.6 486.929 266.621C485.857 267.621 485.314 268.84 485.301 270.277L485.217 279.058C485.204 280.495 485.713 281.724 486.745 282.745C487.798 283.766 489.074 284.276 490.574 284.276H508.793L508.73 290.87H490.512C488.303 290.87 486.298 290.339 484.495 289.276C482.693 288.214 481.259 286.797 480.192 285.026C479.126 283.235 478.603 281.266 478.623 279.12L478.708 270.183ZM525.971 246.434H532.564L532.45 258.496H542.637C544.887 258.496 546.924 259.028 548.747 260.09C550.592 261.132 552.047 262.538 553.114 264.309C554.201 266.058 554.735 268.006 554.714 270.152L554.518 290.87H547.924L548.12 270.246C548.133 268.871 547.582 267.673 546.466 266.652C545.372 265.611 544.075 265.09 542.575 265.09H532.387L532.143 290.87H525.549L525.971 246.434Z"/>
</mask>
<path d="M204.044 257.184C204.062 255.205 204.569 253.403 205.564 251.778C206.579 250.153 207.925 248.861 209.6 247.903C211.297 246.924 213.156 246.434 215.177 246.434H238.177L238.115 252.997H215.115C213.906 252.997 212.86 253.424 211.977 254.278C211.094 255.132 210.647 256.163 210.636 257.371L210.607 260.434C210.596 261.538 211.025 262.486 211.892 263.277C212.76 264.069 213.797 264.465 215.006 264.465H229.162C231.204 264.465 233.053 264.954 234.711 265.933C236.368 266.892 237.679 268.194 238.642 269.84C239.627 271.464 240.11 273.266 240.091 275.246L240.045 280.089C240.026 282.068 239.509 283.881 238.494 285.526C237.499 287.151 236.164 288.453 234.488 289.432C232.812 290.391 230.953 290.87 228.912 290.87H203.755L203.818 284.276H228.974C230.203 284.276 231.249 283.87 232.111 283.058C232.994 282.224 233.441 281.224 233.452 280.058L233.497 275.277C233.508 274.11 233.08 273.11 232.213 272.277C231.367 271.444 230.329 271.027 229.1 271.027H214.944C212.923 271.027 211.073 270.558 209.394 269.621C207.737 268.663 206.416 267.381 205.431 265.777C204.467 264.173 203.994 262.402 204.012 260.465L204.044 257.184ZM257.318 265.184C257.335 263.329 258.027 261.757 259.394 260.465C260.76 259.153 262.392 258.496 264.287 258.496H277.787C279.517 258.496 281.075 258.923 282.463 259.778C283.871 260.611 284.986 261.746 285.805 263.184C286.646 264.6 287.058 266.173 287.042 267.902L287.033 268.808C287.017 270.517 286.575 272.079 285.708 273.496C284.861 274.891 283.725 276.016 282.301 276.87C280.897 277.704 279.33 278.12 277.601 278.12H267.539L267.601 271.558H277.726C278.476 271.558 279.114 271.287 279.64 270.746C280.187 270.204 280.464 269.548 280.471 268.777L280.479 267.902C280.487 267.111 280.222 266.444 279.686 265.902C279.17 265.361 278.537 265.09 277.787 265.09H263.912L263.755 281.714C263.748 282.422 263.982 283.026 264.456 283.526C264.931 284.026 265.512 284.276 266.199 284.276H284.605L284.543 290.87H266.137C264.47 290.87 262.953 290.464 261.586 289.651C260.219 288.818 259.135 287.714 258.336 286.339C257.537 284.943 257.145 283.412 257.161 281.745L257.318 265.184ZM302.356 258.496H306.575L306.689 246.434H313.283L313.169 258.496H323.137L323.075 265.09H313.106L312.949 281.683C312.942 282.391 313.207 283.006 313.744 283.526C314.301 284.026 314.966 284.276 315.737 284.276H322.893L322.83 290.87H315.58C313.872 290.87 312.313 290.464 310.904 289.651C309.516 288.818 308.402 287.714 307.561 286.339C306.741 284.943 306.339 283.401 306.355 281.714L306.512 265.09H302.294L302.356 258.496ZM339.446 246.434H345.477L359.654 263.965L374.164 246.434H380.196L379.774 290.87H373.18L373.495 257.653L362.337 271.027H356.869L345.933 257.653L345.618 290.87H339.024L339.446 246.434ZM397.383 270.121C397.404 267.975 397.943 266.027 399.001 264.277C400.08 262.527 401.51 261.132 403.291 260.09C405.072 259.028 407.035 258.496 409.181 258.496H427.244L426.937 290.87H420.343L420.587 265.09H409.119C407.723 265.09 406.52 265.59 405.511 266.59C404.501 267.569 403.99 268.767 403.977 270.183L403.892 279.12C403.878 280.537 404.367 281.756 405.357 282.776C406.348 283.776 407.541 284.276 408.937 284.276H416.655L416.593 290.87H408.874C406.728 290.87 404.775 290.349 403.014 289.307C401.253 288.245 399.85 286.828 398.804 285.058C397.779 283.287 397.277 281.329 397.297 279.183L397.383 270.121ZM442.781 258.496H447L447.114 246.434H453.708L453.594 258.496H463.562L463.5 265.09H453.531L453.374 281.683C453.367 282.391 453.632 283.006 454.169 283.526C454.726 284.026 455.391 284.276 456.162 284.276H463.318L463.255 290.87H456.005C454.297 290.87 452.738 290.464 451.329 289.651C449.941 288.818 448.827 287.714 447.986 286.339C447.166 284.943 446.764 283.401 446.78 281.714L446.937 265.09H442.719L442.781 258.496ZM478.708 270.183C478.728 268.038 479.288 266.079 480.389 264.309C481.489 262.538 482.95 261.132 484.772 260.09C486.595 259.028 488.61 258.496 490.819 258.496H509.037L508.975 265.09H490.756C489.277 265.09 488.001 265.6 486.929 266.621C485.857 267.621 485.314 268.84 485.301 270.277L485.217 279.058C485.204 280.495 485.713 281.724 486.745 282.745C487.798 283.766 489.074 284.276 490.574 284.276H508.793L508.73 290.87H490.512C488.303 290.87 486.298 290.339 484.495 289.276C482.693 288.214 481.259 286.797 480.192 285.026C479.126 283.235 478.603 281.266 478.623 279.12L478.708 270.183ZM525.971 246.434H532.564L532.45 258.496H542.637C544.887 258.496 546.924 259.028 548.747 260.09C550.592 261.132 552.047 262.538 553.114 264.309C554.201 266.058 554.735 268.006 554.714 270.152L554.518 290.87H547.924L548.12 270.246C548.133 268.871 547.582 267.673 546.466 266.652C545.372 265.611 544.075 265.09 542.575 265.09H532.387L532.143 290.87H525.549L525.971 246.434Z" fill="#D9D9D9"/>
<path d="M205.564 251.778L201.33 249.158L201.318 249.177L201.305 249.197L205.564 251.778ZM209.6 247.903L212.052 252.237L212.06 252.232L212.069 252.228L209.6 247.903ZM238.177 246.434H243.177L243.224 241.435H238.224L238.177 246.434ZM238.115 252.997L238.067 257.996H243.067L243.115 252.997H238.115ZM234.711 265.933L232.137 270.244L232.157 270.256L232.177 270.268L234.711 265.933ZM238.642 269.84L234.321 272.396L234.34 272.428L234.359 272.46L238.642 269.84ZM238.494 285.526L234.245 282.93L234.24 282.938L234.235 282.946L238.494 285.526ZM234.488 289.432L236.939 293.767L236.959 293.755L236.98 293.743L234.488 289.432ZM203.755 290.87H198.755L198.708 295.87H203.708L203.755 290.87ZM203.818 284.276L203.865 279.277H198.865L198.818 284.276H203.818ZM232.111 283.058L235.522 286.68L235.525 286.678L232.111 283.058ZM232.213 272.277L228.687 275.856L228.709 275.877L228.73 275.897L232.213 272.277ZM209.394 269.621L206.861 273.955L206.893 273.974L206.925 273.991L209.394 269.621ZM205.431 265.777L201.138 268.382L201.15 268.402L201.163 268.422L205.431 265.777ZM209.044 257.184C209.054 256.073 209.325 255.17 209.822 254.358L201.305 249.197C199.813 251.636 199.071 254.337 199.044 257.184H209.044ZM209.797 254.398C210.366 253.488 211.096 252.784 212.052 252.237L207.149 243.569C204.753 244.939 202.792 246.817 201.33 249.158L209.797 254.398ZM212.069 252.228C212.971 251.707 213.957 251.434 215.129 251.434L215.224 241.435C212.355 241.435 209.623 242.141 207.132 243.579L212.069 252.228ZM215.129 251.434H238.129L238.224 241.435H215.224L215.129 251.434ZM233.177 246.434L233.115 252.997H243.115L243.177 246.434H233.177ZM238.162 247.997H215.162L215.067 257.996H238.067L238.162 247.997ZM215.162 247.997C212.631 247.997 210.332 248.946 208.519 250.7L215.436 257.855C215.454 257.838 215.4 257.892 215.277 257.943C215.221 257.966 215.168 257.98 215.125 257.989C215.082 257.997 215.061 257.996 215.067 257.996L215.162 247.997ZM208.519 250.7C206.676 252.482 205.66 254.798 205.636 257.371H215.636C215.636 257.371 215.635 257.379 215.634 257.394C215.632 257.409 215.629 257.431 215.624 257.457C215.613 257.512 215.593 257.576 215.564 257.644C215.5 257.793 215.429 257.862 215.436 257.855L208.519 250.7ZM205.636 257.371L205.607 260.434H215.607L215.636 257.371H205.636ZM205.607 260.434C205.582 263.056 206.676 265.319 208.502 266.985L215.282 259.57C215.279 259.567 215.384 259.665 215.48 259.878C215.579 260.098 215.608 260.305 215.607 260.434H205.607ZM208.502 266.985C210.305 268.63 212.543 269.465 214.958 269.465L215.053 259.465C215.025 259.465 215.024 259.463 215.045 259.466C215.066 259.47 215.1 259.478 215.142 259.494C215.183 259.51 215.22 259.529 215.248 259.547C215.276 259.564 215.287 259.575 215.282 259.57L208.502 266.985ZM214.958 269.465H229.115L229.209 259.465H215.053L214.958 269.465ZM229.115 269.465C230.318 269.465 231.287 269.742 232.137 270.244L237.284 261.623C234.82 260.167 232.09 259.465 229.209 259.465L229.115 269.465ZM232.177 270.268C233.098 270.8 233.791 271.491 234.321 272.396L242.964 267.283C241.566 264.897 239.639 262.984 237.244 261.599L232.177 270.268ZM234.359 272.46C234.848 273.267 235.101 274.156 235.091 275.246H245.091C245.118 272.377 244.406 269.662 242.925 267.219L234.359 272.46ZM235.091 275.246L235.045 280.089H245.045L245.091 275.246H235.091ZM235.045 280.089C235.035 281.179 234.764 282.089 234.245 282.93L242.742 288.123C244.254 285.672 245.018 282.957 245.045 280.089H235.045ZM234.235 282.946C233.686 283.843 232.964 284.556 231.996 285.122L236.98 293.743C239.364 292.35 241.312 290.459 242.752 288.107L234.235 282.946ZM232.036 285.098C231.171 285.593 230.182 285.87 228.959 285.87L228.864 295.87C231.724 295.87 234.453 295.188 236.939 293.767L232.036 285.098ZM228.959 285.87H203.803L203.708 295.87H228.864L228.959 285.87ZM208.755 290.87L208.818 284.276H198.818L198.755 290.87H208.755ZM203.77 289.276H228.927L229.022 279.277H203.865L203.77 289.276ZM228.927 289.276C231.378 289.276 233.679 288.418 235.522 286.68L228.699 279.435C228.703 279.431 228.726 279.411 228.766 279.385C228.807 279.359 228.855 279.334 228.908 279.314C229.021 279.27 229.076 279.277 229.022 279.277L228.927 289.276ZM235.525 286.678C237.367 284.939 238.427 282.647 238.452 280.058H228.452C228.452 280 228.468 279.853 228.546 279.679C228.623 279.508 228.705 279.43 228.697 279.437L235.525 286.678ZM238.452 280.058L238.497 275.277H228.497L228.452 280.058H238.452ZM238.497 275.277C238.522 272.688 237.505 270.395 235.696 268.656L228.73 275.897C228.738 275.905 228.658 275.827 228.584 275.656C228.51 275.481 228.496 275.335 228.497 275.277H238.497ZM235.739 268.698C233.936 266.924 231.637 266.027 229.147 266.027L229.052 276.027C229.092 276.027 229.022 276.031 228.899 275.982C228.842 275.959 228.792 275.932 228.75 275.904C228.71 275.877 228.689 275.858 228.687 275.856L235.739 268.698ZM229.147 266.027H214.991L214.896 276.027H229.052L229.147 266.027ZM214.991 266.027C213.779 266.027 212.769 265.755 211.864 265.25L206.925 273.991C209.377 275.361 212.067 276.027 214.896 276.027L214.991 266.027ZM211.928 265.286C210.968 264.731 210.247 264.025 209.699 263.132L201.163 268.422C202.584 270.737 204.506 272.594 206.861 273.955L211.928 265.286ZM209.723 263.172C209.246 262.378 209.003 261.513 209.012 260.465H199.012C198.986 263.292 199.688 265.968 201.138 268.382L209.723 263.172ZM209.012 260.465L209.044 257.184H199.044L199.012 260.465H209.012ZM259.394 260.465L262.81 264.083L262.825 264.069L262.84 264.055L259.394 260.465ZM282.463 259.778L279.812 264.042L279.849 264.065L279.887 264.087L282.463 259.778ZM285.805 263.184L281.456 265.691L281.477 265.728L281.499 265.765L285.805 263.184ZM285.708 273.496L281.45 270.914L281.444 270.923L281.439 270.933L285.708 273.496ZM282.301 276.87L284.823 281.163L284.832 281.158L284.842 281.152L282.301 276.87ZM267.539 278.12H262.539L262.491 283.12H267.491L267.539 278.12ZM267.601 271.558L267.648 266.558H262.648L262.601 271.558H267.601ZM279.64 270.746L276.138 267.21L276.103 267.245L276.069 267.28L279.64 270.746ZM279.686 265.902L276.049 269.368L276.083 269.403L276.117 269.438L279.686 265.902ZM263.912 265.09L263.96 260.09H258.96L258.912 265.09H263.912ZM284.605 284.276H289.605L289.653 279.277H284.653L284.605 284.276ZM284.543 290.87L284.495 295.87H289.495L289.543 290.87H284.543ZM261.586 289.651L258.954 293.927L258.977 293.941L259.001 293.956L261.586 289.651ZM258.336 286.339L253.991 288.854L253.999 288.868L254.007 288.882L258.336 286.339ZM262.318 265.184C262.322 264.711 262.432 264.441 262.81 264.083L255.977 256.847C253.623 259.072 252.348 261.948 252.318 265.184H262.318ZM262.84 264.055C263.259 263.652 263.635 263.496 264.24 263.496L264.335 253.497C261.148 253.497 258.261 254.653 255.948 256.875L262.84 264.055ZM264.24 263.496H277.74L277.835 253.497H264.335L264.24 263.496ZM277.74 263.496C278.603 263.496 279.251 263.696 279.812 264.042L285.113 255.513C282.899 254.15 280.431 253.497 277.835 253.497L277.74 263.496ZM279.887 264.087C280.549 264.479 281.056 264.99 281.456 265.691L290.155 260.676C288.915 258.502 287.194 256.743 285.039 255.468L279.887 264.087ZM281.499 265.765C281.856 266.367 282.05 267.04 282.042 267.902H292.042C292.067 265.306 291.436 262.834 290.112 260.602L281.499 265.765ZM282.042 267.902L282.033 268.808H292.033L292.042 267.902H282.042ZM282.033 268.808C282.025 269.638 281.825 270.303 281.45 270.914L289.965 276.077C291.326 273.855 292.009 271.395 292.033 268.808H282.033ZM281.439 270.933C281.027 271.611 280.49 272.151 279.759 272.589L284.842 281.152C286.96 279.882 288.695 278.172 289.976 276.059L281.439 270.933ZM279.778 272.578C279.204 272.919 278.535 273.121 277.649 273.121L277.554 283.12C280.126 283.12 282.59 282.489 284.823 281.163L279.778 272.578ZM277.649 273.121H267.586L267.491 283.12H277.554L277.649 273.121ZM272.539 278.12L272.601 271.558H262.601L262.539 278.12H272.539ZM267.554 276.558H277.679L277.773 266.558H267.648L267.554 276.558ZM277.679 276.558C279.792 276.558 281.735 275.731 283.211 274.211L276.069 267.28C276.235 267.109 276.495 266.906 276.85 266.756C277.205 266.605 277.533 266.558 277.773 266.558L277.679 276.558ZM283.142 274.281C284.642 272.795 285.451 270.865 285.471 268.777H275.471C275.473 268.565 275.516 268.267 275.654 267.94C275.792 267.612 275.979 267.368 276.138 267.21L283.142 274.281ZM285.471 268.777L285.479 267.902H275.479L275.471 268.777H285.471ZM285.479 267.902C285.499 265.834 284.754 263.881 283.255 262.367L276.117 269.438C275.948 269.267 275.765 269.015 275.636 268.69C275.509 268.369 275.478 268.087 275.479 267.902H285.479ZM283.323 262.437C281.876 260.917 279.948 260.09 277.835 260.09L277.74 270.09C277.499 270.09 277.173 270.043 276.82 269.892C276.468 269.742 276.212 269.539 276.049 269.368L283.323 262.437ZM277.835 260.09H263.96L263.865 270.09H277.74L277.835 260.09ZM258.912 265.09L258.755 281.714H268.755L268.912 265.09H258.912ZM258.755 281.714C258.736 283.679 259.434 285.532 260.813 286.986L268.099 280.067C268.275 280.253 268.46 280.518 268.59 280.855C268.72 281.191 268.757 281.494 268.755 281.714H258.755ZM260.813 286.986C262.214 288.462 264.09 289.276 266.152 289.276L266.247 279.277C266.523 279.277 266.881 279.33 267.261 279.493C267.64 279.656 267.918 279.877 268.099 280.067L260.813 286.986ZM266.152 289.276H284.558L284.653 279.277H266.247L266.152 289.276ZM279.605 284.276L279.543 290.87H289.543L289.605 284.276H279.605ZM284.59 285.87H266.184L266.089 295.87H284.495L284.59 285.87ZM266.184 285.87C265.371 285.87 264.737 285.684 264.17 285.347L259.001 293.956C261.169 295.244 263.568 295.87 266.089 295.87L266.184 285.87ZM264.218 285.375C263.547 284.966 263.048 284.455 262.665 283.795L254.007 288.882C255.222 290.972 256.89 292.669 258.954 293.927L264.218 285.375ZM262.681 283.824C262.333 283.217 262.153 282.558 262.161 281.745H252.161C252.137 284.266 252.74 286.669 253.991 288.854L262.681 283.824ZM262.161 281.745L262.318 265.184H252.318L252.161 281.745H262.161ZM302.356 258.496L302.404 253.497H297.404L297.356 258.496H302.356ZM306.575 258.496L306.527 263.496H311.527L311.575 258.496H306.575ZM306.689 246.434L306.737 241.435H301.737L301.689 246.434H306.689ZM313.283 246.434H318.283L318.33 241.435H313.33L313.283 246.434ZM313.169 258.496H308.169L308.121 263.496H313.121L313.169 258.496ZM323.137 258.496H328.137L328.185 253.497H323.185L323.137 258.496ZM323.075 265.09L323.027 270.09H328.027L328.075 265.09H323.075ZM313.106 265.09L313.154 260.09H308.154L308.106 265.09H313.106ZM313.744 283.526L310.244 287.13L310.314 287.198L310.386 287.263L313.744 283.526ZM322.893 284.276H327.893L327.94 279.277H322.94L322.893 284.276ZM322.83 290.87L322.783 295.87H327.783L327.83 290.87H322.83ZM310.904 289.651L308.301 293.944L308.338 293.967L308.376 293.988L310.904 289.651ZM307.561 286.339L303.243 288.902L303.266 288.94L303.289 288.977L307.561 286.339ZM306.512 265.09H311.512L311.56 260.09H306.56L306.512 265.09ZM302.294 265.09H297.294L297.246 270.09H302.246L302.294 265.09ZM302.309 263.496H306.527L306.622 253.497H302.404L302.309 263.496ZM311.575 258.496L311.689 246.434H301.689L301.575 258.496H311.575ZM306.642 251.434H313.236L313.33 241.435H306.737L306.642 251.434ZM308.283 246.434L308.169 258.496H318.169L318.283 246.434H308.283ZM313.121 263.496H323.09L323.185 253.497H313.216L313.121 263.496ZM318.137 258.496L318.075 265.09H328.075L328.137 258.496H318.137ZM323.122 260.09H313.154L313.059 270.09H323.027L323.122 260.09ZM308.106 265.09L307.949 281.683H317.949L318.106 265.09H308.106ZM307.949 281.683C307.928 283.841 308.802 285.731 310.244 287.13L317.243 279.922C317.385 280.06 317.583 280.302 317.737 280.659C317.893 281.021 317.952 281.381 317.949 281.683H307.949ZM310.386 287.263C311.876 288.598 313.726 289.276 315.689 289.276L315.784 279.277C315.948 279.277 316.188 279.305 316.46 279.407C316.734 279.51 316.95 279.655 317.101 279.79L310.386 287.263ZM315.689 289.276H322.845L322.94 279.277H315.784L315.689 289.276ZM317.893 284.276L317.83 290.87H327.83L327.893 284.276H317.893ZM322.878 285.87H315.628L315.533 295.87H322.783L322.878 285.87ZM315.628 285.87C314.75 285.87 314.054 285.672 313.433 285.314L308.376 293.988C310.573 295.255 312.994 295.87 315.533 295.87L315.628 285.87ZM313.508 285.358C312.799 284.932 312.258 284.394 311.833 283.701L303.289 288.977C304.546 291.033 306.234 292.703 308.301 293.944L313.508 285.358ZM311.878 283.776C311.531 283.185 311.347 282.535 311.355 281.714H301.355C301.33 284.268 301.95 286.701 303.243 288.902L311.878 283.776ZM311.355 281.714L311.512 265.09H301.512L301.355 281.714H311.355ZM306.56 260.09H302.341L302.246 270.09H306.465L306.56 260.09ZM307.294 265.09L307.356 258.496H297.356L297.294 265.09H307.294ZM339.446 246.434L339.493 241.435H334.493L334.446 246.434H339.446ZM345.477 246.434L349.377 243.268L347.894 241.435H345.524L345.477 246.434ZM359.654 263.965L355.754 267.131L359.579 271.86L363.494 267.131L359.654 263.965ZM374.164 246.434L374.212 241.435H371.842L370.325 243.268L374.164 246.434ZM380.196 246.434H385.196L385.243 241.435H380.243L380.196 246.434ZM379.774 290.87L379.727 295.87H384.727L384.774 290.87H379.774ZM373.18 290.87H368.18L368.133 295.87H373.133L373.18 290.87ZM373.495 257.653H378.495L378.627 243.733L369.668 254.471L373.495 257.653ZM362.337 271.027L362.29 276.027H364.647L366.164 274.208L362.337 271.027ZM356.869 271.027L352.985 274.214L354.468 276.027H356.821L356.869 271.027ZM345.933 257.653L349.816 254.466L341.065 243.763L340.933 257.653H345.933ZM345.618 290.87L345.57 295.87H350.57L350.618 290.87H345.618ZM339.024 290.87H334.024L333.977 295.87H338.977L339.024 290.87ZM339.398 251.434H345.429L345.524 241.435H339.493L339.398 251.434ZM341.577 249.6L355.754 267.131L363.554 260.799L349.377 243.268L341.577 249.6ZM363.494 267.131L378.004 249.6L370.325 243.268L355.815 260.799L363.494 267.131ZM374.117 251.434H380.148L380.243 241.435H374.212L374.117 251.434ZM375.196 246.434L374.774 290.87H384.774L385.196 246.434H375.196ZM379.822 285.87H373.228L373.133 295.87H379.727L379.822 285.87ZM378.18 290.87L378.495 257.653H368.495L368.18 290.87H378.18ZM369.668 254.471L358.51 267.846L366.164 274.208L377.323 260.834L369.668 254.471ZM362.385 266.027H356.916L356.821 276.027H362.29L362.385 266.027ZM360.752 267.84L349.816 254.466L342.05 260.839L352.985 274.214L360.752 267.84ZM340.933 257.653L340.618 290.87H350.618L350.933 257.653H340.933ZM345.665 285.87H339.072L338.977 295.87H345.57L345.665 285.87ZM344.024 290.87L344.446 246.434H334.446L334.024 290.87H344.024ZM399.001 264.277L394.752 261.683L394.74 261.701L394.729 261.72L399.001 264.277ZM403.291 260.09L405.785 264.399L405.804 264.388L405.823 264.377L403.291 260.09ZM427.244 258.496H432.244L432.291 253.497H427.291L427.244 258.496ZM426.937 290.87L426.889 295.87H431.889L431.937 290.87H426.937ZM420.343 290.87H415.343L415.295 295.87H420.295L420.343 290.87ZM420.587 265.09H425.587L425.635 260.09H420.635L420.587 265.09ZM405.511 266.59L408.975 270.162L408.994 270.144L409.013 270.125L405.511 266.59ZM405.357 282.776L401.752 286.275L401.77 286.294L401.788 286.312L405.357 282.776ZM416.655 284.276H421.655L421.703 279.277H416.703L416.655 284.276ZM416.593 290.87L416.545 295.87H421.545L421.593 290.87H416.593ZM403.014 289.307L400.401 293.595L400.419 293.606L400.438 293.617L403.014 289.307ZM398.804 285.058L394.47 287.593L394.481 287.611L394.492 287.63L398.804 285.058ZM402.383 270.121C402.396 268.825 402.709 267.769 403.274 266.835L394.729 261.72C393.178 264.286 392.412 267.125 392.383 270.121H402.383ZM403.251 266.872C403.892 265.831 404.718 265.024 405.785 264.399L400.797 255.781C398.302 257.24 396.268 259.224 394.752 261.683L403.251 266.872ZM405.823 264.377C406.791 263.8 407.857 263.496 409.134 263.496L409.229 253.497C406.214 253.497 403.353 254.255 400.759 255.803L405.823 264.377ZM409.134 263.496H427.196L427.291 253.497H409.229L409.134 263.496ZM422.244 258.496L421.937 290.87H431.937L432.244 258.496H422.244ZM426.984 285.87H420.39L420.295 295.87H426.889L426.984 285.87ZM425.343 290.87L425.587 265.09H415.587L415.343 290.87H425.343ZM420.635 260.09H409.166L409.071 270.09H420.54L420.635 260.09ZM409.166 260.09C406.425 260.09 403.951 261.131 402.009 263.054L409.013 270.125C409.057 270.081 409.081 270.065 409.083 270.063C409.085 270.062 409.073 270.07 409.052 270.079C409.03 270.088 409.013 270.092 409.008 270.093C409.003 270.094 409.022 270.09 409.071 270.09L409.166 260.09ZM402.046 263.017C400.054 264.95 399.003 267.441 398.977 270.183H408.977C408.977 270.153 408.978 270.132 408.98 270.119C408.981 270.106 408.982 270.101 408.982 270.101C408.982 270.101 408.981 270.107 408.978 270.116C408.975 270.125 408.971 270.136 408.966 270.148C408.961 270.161 408.955 270.172 408.95 270.182C408.944 270.192 408.94 270.198 408.937 270.202C408.935 270.205 408.936 270.203 408.941 270.197C408.947 270.191 408.957 270.179 408.975 270.162L402.046 263.017ZM398.977 270.183L398.892 279.12H408.892L408.977 270.183H398.977ZM398.892 279.12C398.866 281.858 399.864 284.329 401.752 286.275L408.962 279.278C408.915 279.23 408.895 279.2 408.889 279.191C408.884 279.183 408.887 279.187 408.892 279.199C408.897 279.212 408.898 279.218 408.897 279.214C408.896 279.208 408.891 279.179 408.892 279.12H398.892ZM401.788 286.312C403.694 288.236 406.148 289.276 408.889 289.276L408.984 279.277C408.935 279.277 408.916 279.272 408.921 279.273C408.926 279.274 408.943 279.278 408.965 279.287C408.986 279.296 408.997 279.304 408.996 279.303C408.993 279.301 408.969 279.285 408.926 279.241L401.788 286.312ZM408.889 289.276H416.608L416.703 279.277H408.984L408.889 289.276ZM411.655 284.276L411.593 290.87H421.593L421.655 284.276H411.655ZM416.64 285.87H408.922L408.827 295.87H416.545L416.64 285.87ZM408.922 285.87C407.626 285.87 406.552 285.567 405.59 284.998L400.438 293.617C402.998 295.131 405.831 295.87 408.827 295.87L408.922 285.87ZM405.627 285.02C404.566 284.38 403.746 283.552 403.116 282.485L394.492 287.63C395.954 290.104 397.94 292.11 400.401 293.595L405.627 285.02ZM403.138 282.523C402.578 281.555 402.285 280.479 402.297 279.183H392.297C392.269 282.179 392.981 285.019 394.47 287.593L403.138 282.523ZM402.297 279.183L402.383 270.121H392.383L392.297 279.183H402.297ZM442.781 258.496L442.829 253.497H437.829L437.781 258.496H442.781ZM447 258.496L446.952 263.496H451.952L452 258.496H447ZM447.114 246.434L447.162 241.435H442.162L442.114 246.434H447.114ZM453.708 246.434H458.708L458.755 241.435H453.755L453.708 246.434ZM453.594 258.496H448.594L448.546 263.496H453.546L453.594 258.496ZM463.562 258.496H468.562L468.61 253.497H463.61L463.562 258.496ZM463.5 265.09L463.452 270.09H468.452L468.5 265.09H463.5ZM453.531 265.09L453.579 260.09H448.579L448.531 265.09H453.531ZM454.169 283.526L450.669 287.13L450.739 287.198L450.811 287.263L454.169 283.526ZM463.318 284.276H468.318L468.365 279.277H463.365L463.318 284.276ZM463.255 290.87L463.208 295.87H468.208L468.255 290.87H463.255ZM451.329 289.651L448.726 293.944L448.763 293.967L448.801 293.988L451.329 289.651ZM447.986 286.339L443.668 288.902L443.691 288.94L443.714 288.977L447.986 286.339ZM446.937 265.09H451.937L451.985 260.09H446.985L446.937 265.09ZM442.719 265.09H437.719L437.671 270.09H442.671L442.719 265.09ZM442.734 263.496H446.952L447.047 253.497H442.829L442.734 263.496ZM452 258.496L452.114 246.434H442.114L442 258.496H452ZM447.067 251.434H453.661L453.755 241.435H447.162L447.067 251.434ZM448.708 246.434L448.594 258.496H458.594L458.708 246.434H448.708ZM453.546 263.496H463.515L463.61 253.497H453.641L453.546 263.496ZM458.562 258.496L458.5 265.09H468.5L468.562 258.496H458.562ZM463.547 260.09H453.579L453.484 270.09H463.452L463.547 260.09ZM448.531 265.09L448.374 281.683H458.374L458.531 265.09H448.531ZM448.374 281.683C448.353 283.841 449.227 285.731 450.669 287.13L457.668 279.922C457.81 280.06 458.008 280.302 458.162 280.659C458.318 281.021 458.377 281.381 458.374 281.683H448.374ZM450.811 287.263C452.301 288.598 454.151 289.276 456.114 289.276L456.209 279.277C456.373 279.277 456.613 279.305 456.885 279.407C457.159 279.51 457.375 279.655 457.526 279.79L450.811 287.263ZM456.114 289.276H463.27L463.365 279.277H456.209L456.114 289.276ZM458.318 284.276L458.255 290.87H468.255L468.318 284.276H458.318ZM463.303 285.87H456.053L455.958 295.87H463.208L463.303 285.87ZM456.053 285.87C455.175 285.87 454.479 285.672 453.858 285.314L448.801 293.988C450.998 295.255 453.419 295.87 455.958 295.87L456.053 285.87ZM453.933 285.358C453.224 284.932 452.682 284.394 452.258 283.701L443.714 288.977C444.971 291.033 446.659 292.703 448.726 293.944L453.933 285.358ZM452.303 283.776C451.956 283.185 451.772 282.535 451.78 281.714H441.78C441.755 284.268 442.375 286.701 443.668 288.902L452.303 283.776ZM451.78 281.714L451.937 265.09H441.937L441.78 281.714H451.78ZM446.985 260.09H442.766L442.671 270.09H446.89L446.985 260.09ZM447.719 265.09L447.781 258.496H437.781L437.719 265.09H447.719ZM484.772 260.09L487.223 264.425L487.241 264.414L487.26 264.403L484.772 260.09ZM509.037 258.496H514.037L514.085 253.497H509.085L509.037 258.496ZM508.975 265.09L508.927 270.09H513.927L513.975 265.09H508.975ZM486.929 266.621L490.321 270.262L490.34 270.244L490.359 270.226L486.929 266.621ZM486.745 282.745L483.211 286.316L483.229 286.333L483.247 286.351L486.745 282.745ZM508.793 284.276H513.793L513.84 279.277H508.84L508.793 284.276ZM508.73 290.87L508.683 295.87H513.683L513.73 290.87H508.73ZM480.192 285.026L475.889 287.613L475.895 287.624L475.902 287.636L480.192 285.026ZM483.708 270.183C483.72 268.926 484.034 267.876 484.629 266.918L476.148 261.699C474.543 264.283 473.737 267.149 473.708 270.183H483.708ZM484.629 266.918C485.282 265.867 486.125 265.052 487.223 264.425L482.322 255.755C479.774 257.211 477.696 259.209 476.148 261.699L484.629 266.918ZM487.26 264.403C488.271 263.814 489.404 263.496 490.771 263.496L490.866 253.497C487.816 253.497 484.918 254.241 482.285 255.777L487.26 264.403ZM490.771 263.496H508.99L509.085 253.497H490.866L490.771 263.496ZM504.037 258.496L503.975 265.09H513.975L514.037 258.496H504.037ZM509.022 260.09H490.804L490.709 270.09H508.927L509.022 260.09ZM490.804 260.09C488.039 260.09 485.515 261.096 483.499 263.016L490.359 270.226C490.415 270.173 490.455 270.144 490.475 270.131C490.495 270.118 490.505 270.114 490.509 270.112C490.514 270.11 490.525 270.106 490.551 270.101C490.577 270.096 490.627 270.09 490.709 270.09L490.804 260.09ZM483.537 262.98C481.469 264.909 480.328 267.438 480.301 270.277H490.301C490.301 270.251 490.302 270.235 490.303 270.226C490.304 270.218 490.305 270.216 490.304 270.221C490.303 270.225 490.301 270.233 490.297 270.245C490.293 270.257 490.288 270.27 490.283 270.283C490.277 270.296 490.271 270.307 490.266 270.316C490.263 270.32 490.261 270.323 490.26 270.325C490.258 270.328 490.258 270.329 490.258 270.329C490.258 270.329 490.259 270.327 490.261 270.325C490.263 270.322 490.266 270.318 490.271 270.312C490.281 270.301 490.297 270.284 490.321 270.262L483.537 262.98ZM480.301 270.277L480.217 279.058H490.217L490.301 270.277H480.301ZM480.217 279.058C480.191 281.861 481.244 284.37 483.211 286.316L490.278 279.174C490.229 279.125 490.208 279.096 490.203 279.089C490.199 279.083 490.204 279.09 490.211 279.107C490.215 279.115 490.217 279.123 490.219 279.129C490.221 279.136 490.222 279.139 490.222 279.139C490.221 279.138 490.22 279.132 490.219 279.119C490.218 279.107 490.217 279.086 490.217 279.058H480.217ZM483.247 286.351C485.241 288.284 487.761 289.276 490.527 289.276L490.622 279.277C490.449 279.277 490.388 279.25 490.386 279.249C490.38 279.246 490.369 279.242 490.351 279.229C490.332 279.217 490.296 279.191 490.243 279.14L483.247 286.351ZM490.527 289.276H508.745L508.84 279.277H490.622L490.527 289.276ZM503.793 284.276L503.73 290.87H513.73L513.793 284.276H503.793ZM508.778 285.87H490.559L490.464 295.87H508.683L508.778 285.87ZM490.559 285.87C489.192 285.87 488.065 285.552 487.065 284.963L481.926 293.589C484.531 295.125 487.414 295.87 490.464 295.87L490.559 285.87ZM487.065 284.963C485.96 284.312 485.12 283.477 484.482 282.417L475.902 287.636C477.397 290.117 479.426 292.116 481.926 293.589L487.065 284.963ZM484.495 282.439C483.905 281.448 483.611 280.378 483.623 279.12H473.623C473.594 282.154 474.346 285.021 475.889 287.613L484.495 282.439ZM483.623 279.12L483.708 270.183H473.708L473.623 279.12H483.623ZM525.971 246.434L526.018 241.435H521.018L520.971 246.434H525.971ZM532.564 246.434H537.564L537.612 241.435H532.612L532.564 246.434ZM532.45 258.496H527.45L527.402 263.496H532.402L532.45 258.496ZM548.747 260.09L546.199 264.416L546.228 264.433L546.257 264.449L548.747 260.09ZM553.114 264.309L548.824 266.918L548.841 266.947L548.86 266.977L553.114 264.309ZM554.518 290.87L554.47 295.87H559.47L559.518 290.87H554.518ZM547.924 290.87H542.924L542.877 295.87H547.877L547.924 290.87ZM546.466 266.652L543.001 270.289L543.036 270.322L543.071 270.355L546.466 266.652ZM532.387 265.09L532.435 260.09H527.435L527.387 265.09H532.387ZM532.143 290.87L532.095 295.87H537.095L537.143 290.87H532.143ZM525.549 290.87H520.549L520.502 295.87H525.502L525.549 290.87ZM525.923 251.434H532.517L532.612 241.435H526.018L525.923 251.434ZM527.564 246.434L527.45 258.496H537.45L537.564 246.434H527.564ZM532.402 263.496H542.59L542.685 253.497H532.497L532.402 263.496ZM542.59 263.496C544.016 263.496 545.181 263.822 546.199 264.416L551.295 255.764C548.667 254.233 545.759 253.497 542.685 253.497L542.59 263.496ZM546.257 264.449C547.379 265.083 548.207 265.894 548.824 266.918L557.403 261.699C555.887 259.181 553.804 257.18 551.238 255.731L546.257 264.449ZM548.86 266.977C549.432 267.897 549.726 268.914 549.714 270.152H559.714C559.743 267.099 558.97 264.22 557.367 261.641L548.86 266.977ZM549.714 270.152L549.518 290.87H559.518L559.714 270.152H549.714ZM554.565 285.87H547.972L547.877 295.87H554.47L554.565 285.87ZM552.924 290.87L553.12 270.246H543.12L542.924 290.87H552.924ZM553.12 270.246C553.148 267.304 551.891 264.807 549.861 262.95L543.071 270.355C543.145 270.422 543.179 270.465 543.189 270.478C543.197 270.489 543.187 270.477 543.17 270.441C543.153 270.405 543.138 270.361 543.129 270.316C543.12 270.271 543.12 270.245 543.12 270.246H553.12ZM549.932 263.015C547.93 261.11 545.415 260.09 542.622 260.09L542.527 270.09C542.686 270.09 542.752 270.114 542.772 270.123C542.793 270.131 542.869 270.163 543.001 270.289L549.932 263.015ZM542.622 260.09H532.435L532.34 270.09H542.527L542.622 260.09ZM527.387 265.09L527.143 290.87H537.143L537.387 265.09H527.387ZM532.19 285.87H525.597L525.502 295.87H532.095L532.19 285.87ZM530.549 290.87L530.971 246.434H520.971L520.549 290.87H530.549Z" fill="#DD9786" mask="url(#path-2-outside-1_7_201)"/>
<circle cx="165.131" cy="114.131" r="114.131" fill="#D9D9D9"/>
<path d="M212.957 166.305C194.358 188.285 149.913 229.493 120.928 218.479" stroke="#CD7D69" stroke-width="2.5"/>
<circle cx="165.131" cy="114.131" r="112.881" stroke="#CD7D69" stroke-width="2.5"/>
<path d="M167.667 76.0872C206.208 94.5053 266.943 132.422 253.422 185.508" stroke="#CD7D69" stroke-width="2.5"/>
<path d="M156.073 116.667C159.784 85.1661 181.502 23.2849 238.682 27.7672" stroke="#CD7D69" stroke-width="2.5"/>
<path d="M156.073 116.667C185.536 132.44 238.924 174.232 216.773 215.218" stroke="#CD7D69" stroke-width="2.5"/>
<path d="M156.073 116.667C130.952 138.374 75.6377 173.676 55.3478 141.227" stroke="#CD7D69" stroke-width="2.5"/>
<path d="M193.029 41.3044C221.893 53.518 279.252 87.4287 277.785 125.363" stroke="#CD7D69" stroke-width="2.5"/>
<path d="M185.783 136.232C166.585 169.04 106.878 208.779 74.9131 183.062" stroke="#CD7D69" stroke-width="2.5"/>
<path d="M118.545 142.059C113.141 103.384 132.131 18.2239 185.421 2.89856M84.3582 154.348C75.782 123.264 79.424 47.4323 127.356 7.23941" stroke="#CD7D69" stroke-width="2.5"/>
<rect y="98" width="28" height="340" fill="#CD7D69"/>
<rect x="572" y="98" width="28" height="340" fill="#CD7D69"/>
</svg>
