<svg width="600" height="438" viewBox="0 0 600 438" fill="none" xmlns="http://www.w3.org/2000/svg">
<rect x="1.25" y="99.25" width="597.5" height="197.5" stroke="#CD7D69" stroke-width="2.5"/>
<mask id="path-2-outside-1_7_201" maskUnits="userSpaceOnUse" x="198.056" y="239.06" width="362.261" height="56.6912" fill="black">
<rect fill="white" x="198.056" y="239.06" width="362.261" height="56.6912"/>
<path d="M203.992 257.037C204.001 255.058 204.5 253.254 205.487 251.624C206.494 249.995 207.834 248.697 209.505 247.731C211.197 246.744 213.054 246.245 215.075 246.236L238.074 246.128L238.043 252.691L215.043 252.798C213.835 252.804 212.791 253.236 211.912 254.094C211.033 254.952 210.59 255.986 210.585 257.194L210.57 260.256C210.565 261.361 210.998 262.306 211.869 263.094C212.74 263.882 213.78 264.273 214.988 264.267L229.144 264.201C231.186 264.191 233.038 264.672 234.699 265.643C236.361 266.594 237.678 267.89 238.649 269.531C239.642 271.151 240.133 272.951 240.123 274.93L240.1 279.774C240.091 281.753 239.582 283.568 238.574 285.218C237.587 286.848 236.258 288.156 234.586 289.143C232.915 290.109 231.059 290.597 229.017 290.607L203.861 290.724L203.893 284.131L229.049 284.013C230.278 284.007 231.322 283.596 232.18 282.78C233.059 281.942 233.501 280.94 233.507 279.774L233.53 274.992C233.535 273.826 233.102 272.828 232.231 271.999C231.381 271.169 230.342 270.757 229.113 270.763L214.956 270.829C212.936 270.839 211.084 270.379 209.401 269.449C207.739 268.499 206.412 267.224 205.419 265.624C204.448 264.024 203.967 262.256 203.976 260.318L203.992 257.037ZM257.303 264.788C257.312 262.934 257.996 261.358 259.357 260.06C260.717 258.741 262.345 258.077 264.241 258.068L277.741 258.005C279.47 257.997 281.031 258.417 282.422 259.264C283.835 260.091 284.954 261.221 285.781 262.655C286.628 264.067 287.048 265.638 287.039 267.368L287.035 268.274C287.027 269.982 286.592 271.547 285.731 272.967C284.891 274.367 283.761 275.497 282.34 276.358C280.94 277.198 279.376 277.622 277.647 277.63L267.584 277.677L267.616 271.114L277.741 271.067C278.491 271.064 279.127 270.79 279.651 270.246C280.195 269.702 280.469 269.044 280.473 268.273L280.477 267.398C280.481 266.607 280.213 265.941 279.674 265.402C279.156 264.863 278.522 264.595 277.772 264.598L263.897 264.663L263.817 281.288C263.814 281.996 264.05 282.599 264.527 283.097C265.004 283.595 265.586 283.842 266.273 283.839L284.679 283.753L284.648 290.347L266.242 290.433C264.575 290.44 263.056 290.041 261.685 289.235C260.314 288.408 259.226 287.309 258.42 285.938C257.614 284.546 257.215 283.017 257.223 281.35L257.303 264.788ZM302.309 257.89L306.528 257.871L306.586 245.808L313.18 245.777L313.122 257.84L323.09 257.793L323.059 264.387L313.09 264.433L313.01 281.027C313.007 281.735 313.275 282.349 313.814 282.867C314.374 283.364 315.039 283.611 315.81 283.607L322.966 283.574L322.935 290.168L315.685 290.202C313.977 290.21 312.416 289.811 311.003 289.005C309.611 288.178 308.492 287.079 307.644 285.708C306.818 284.316 306.408 282.776 306.416 281.089L306.496 264.464L302.278 264.484L302.309 257.89ZM339.342 245.655L345.373 245.627L359.633 263.091L374.06 245.493L380.092 245.465L379.878 289.902L373.284 289.932L373.444 256.714L362.349 270.14L356.88 270.166L345.882 256.843L345.722 290.061L339.128 290.092L339.342 245.655ZM397.39 269.07C397.4 266.925 397.931 264.974 398.981 263.219C400.052 261.465 401.475 260.062 403.251 259.012C405.027 257.941 406.987 257.401 409.133 257.391L427.196 257.307L427.04 289.681L420.446 289.712L420.57 263.931L409.102 263.985C407.706 263.991 406.505 264.497 405.501 265.501C404.496 266.485 403.99 267.685 403.983 269.102L403.94 278.04C403.934 279.456 404.428 280.673 405.423 281.689C406.418 282.684 407.613 283.178 409.009 283.172L416.728 283.136L416.696 289.73L408.978 289.766C406.832 289.776 404.876 289.264 403.11 288.231C401.344 287.176 399.935 285.766 398.881 284C397.848 282.235 397.336 280.279 397.346 278.133L397.39 269.07ZM442.733 257.234L446.952 257.214L447.01 245.152L453.603 245.121L453.545 257.183L463.514 257.137L463.482 263.73L453.514 263.777L453.434 280.371C453.43 281.079 453.698 281.692 454.237 282.211C454.797 282.708 455.463 282.955 456.234 282.951L463.39 282.918L463.358 289.511L456.108 289.545C454.4 289.553 452.839 289.154 451.427 288.348C450.035 287.522 448.915 286.423 448.068 285.052C447.241 283.66 446.832 282.12 446.84 280.433L446.92 263.808L442.701 263.828L442.733 257.234ZM478.714 268.753C478.724 266.607 479.275 264.646 480.367 262.87C481.459 261.094 482.914 259.681 484.731 258.631C486.549 257.56 488.562 257.02 490.77 257.009L508.988 256.924L508.957 263.518L490.738 263.603C489.259 263.61 487.986 264.126 486.918 265.152C485.851 266.157 485.314 267.378 485.307 268.816L485.265 277.597C485.258 279.034 485.773 280.261 486.81 281.277C487.867 282.293 489.146 282.797 490.646 282.79L508.864 282.705L508.833 289.299L490.614 289.384C488.406 289.394 486.398 288.873 484.591 287.818C482.783 286.764 481.342 285.355 480.267 283.589C479.193 281.802 478.661 279.836 478.671 277.69L478.714 268.753ZM525.865 244.783L532.459 244.752L532.401 256.815L542.588 256.767C544.838 256.757 546.877 257.278 548.705 258.332C550.555 259.365 552.016 260.765 553.091 262.53C554.187 264.275 554.73 266.221 554.719 268.366L554.62 289.085L548.026 289.116L548.125 268.491C548.132 267.116 547.575 265.921 546.455 264.905C545.356 263.869 544.056 263.354 542.556 263.361L532.369 263.409L532.245 289.189L525.651 289.22L525.865 244.783Z"/>
</mask>
<path d="M203.992 257.037C204.001 255.058 204.5 253.254 205.487 251.624C206.494 249.995 207.834 248.697 209.505 247.731C211.197 246.744 213.054 246.245 215.075 246.236L238.074 246.128L238.043 252.691L215.043 252.798C213.835 252.804 212.791 253.236 211.912 254.094C211.033 254.952 210.59 255.986 210.585 257.194L210.57 260.256C210.565 261.361 210.998 262.306 211.869 263.094C212.74 263.882 213.78 264.273 214.988 264.267L229.144 264.201C231.186 264.191 233.038 264.672 234.699 265.643C236.361 266.594 237.678 267.89 238.649 269.531C239.642 271.151 240.133 272.951 240.123 274.93L240.1 279.774C240.091 281.753 239.582 283.568 238.574 285.218C237.587 286.848 236.258 288.156 234.586 289.143C232.915 290.109 231.059 290.597 229.017 290.607L203.861 290.724L203.893 284.131L229.049 284.013C230.278 284.007 231.322 283.596 232.18 282.78C233.059 281.942 233.501 280.94 233.507 279.774L233.53 274.992C233.535 273.826 233.102 272.828 232.231 271.999C231.381 271.169 230.342 270.757 229.113 270.763L214.956 270.829C212.936 270.839 211.084 270.379 209.401 269.449C207.739 268.499 206.412 267.224 205.419 265.624C204.448 264.024 203.967 262.256 203.976 260.318L203.992 257.037ZM257.303 264.788C257.312 262.934 257.996 261.358 259.357 260.06C260.717 258.741 262.345 258.077 264.241 258.068L277.741 258.005C279.47 257.997 281.031 258.417 282.422 259.264C283.835 260.091 284.954 261.221 285.781 262.655C286.628 264.067 287.048 265.638 287.039 267.368L287.035 268.274C287.027 269.982 286.592 271.547 285.731 272.967C284.891 274.367 283.761 275.497 282.34 276.358C280.94 277.198 279.376 277.622 277.647 277.63L267.584 277.677L267.616 271.114L277.741 271.067C278.491 271.064 279.127 270.79 279.651 270.246C280.195 269.702 280.469 269.044 280.473 268.273L280.477 267.398C280.481 266.607 280.213 265.941 279.674 265.402C279.156 264.863 278.522 264.595 277.772 264.598L263.897 264.663L263.817 281.288C263.814 281.996 264.05 282.599 264.527 283.097C265.004 283.595 265.586 283.842 266.273 283.839L284.679 283.753L284.648 290.347L266.242 290.433C264.575 290.44 263.056 290.041 261.685 289.235C260.314 288.408 259.226 287.309 258.42 285.938C257.614 284.546 257.215 283.017 257.223 281.35L257.303 264.788ZM302.309 257.89L306.528 257.871L306.586 245.808L313.18 245.777L313.122 257.84L323.09 257.793L323.059 264.387L313.09 264.433L313.01 281.027C313.007 281.735 313.275 282.349 313.814 282.867C314.374 283.364 315.039 283.611 315.81 283.607L322.966 283.574L322.935 290.168L315.685 290.202C313.977 290.21 312.416 289.811 311.003 289.005C309.611 288.178 308.492 287.079 307.644 285.708C306.818 284.316 306.408 282.776 306.416 281.089L306.496 264.464L302.278 264.484L302.309 257.89ZM339.342 245.655L345.373 245.627L359.633 263.091L374.06 245.493L380.092 245.465L379.878 289.902L373.284 289.932L373.444 256.714L362.349 270.14L356.88 270.166L345.882 256.843L345.722 290.061L339.128 290.092L339.342 245.655ZM397.39 269.07C397.4 266.925 397.931 264.974 398.981 263.219C400.052 261.465 401.475 260.062 403.251 259.012C405.027 257.941 406.987 257.401 409.133 257.391L427.196 257.307L427.04 289.681L420.446 289.712L420.57 263.931L409.102 263.985C407.706 263.991 406.505 264.497 405.501 265.501C404.496 266.485 403.99 267.685 403.983 269.102L403.94 278.04C403.934 279.456 404.428 280.673 405.423 281.689C406.418 282.684 407.613 283.178 409.009 283.172L416.728 283.136L416.696 289.73L408.978 289.766C406.832 289.776 404.876 289.264 403.11 288.231C401.344 287.176 399.935 285.766 398.881 284C397.848 282.235 397.336 280.279 397.346 278.133L397.39 269.07ZM442.733 257.234L446.952 257.214L447.01 245.152L453.603 245.121L453.545 257.183L463.514 257.137L463.482 263.73L453.514 263.777L453.434 280.371C453.43 281.079 453.698 281.692 454.237 282.211C454.797 282.708 455.463 282.955 456.234 282.951L463.39 282.918L463.358 289.511L456.108 289.545C454.4 289.553 452.839 289.154 451.427 288.348C450.035 287.522 448.915 286.423 448.068 285.052C447.241 283.66 446.832 282.12 446.84 280.433L446.92 263.808L442.701 263.828L442.733 257.234ZM478.714 268.753C478.724 266.607 479.275 264.646 480.367 262.87C481.459 261.094 482.914 259.681 484.731 258.631C486.549 257.56 488.562 257.02 490.77 257.009L508.988 256.924L508.957 263.518L490.738 263.603C489.259 263.61 487.986 264.126 486.918 265.152C485.851 266.157 485.314 267.378 485.307 268.816L485.265 277.597C485.258 279.034 485.773 280.261 486.81 281.277C487.867 282.293 489.146 282.797 490.646 282.79L508.864 282.705L508.833 289.299L490.614 289.384C488.406 289.394 486.398 288.873 484.591 287.818C482.783 286.764 481.342 285.355 480.267 283.589C479.193 281.802 478.661 279.836 478.671 277.69L478.714 268.753ZM525.865 244.783L532.459 244.752L532.401 256.815L542.588 256.767C544.838 256.757 546.877 257.278 548.705 258.332C550.555 259.365 552.016 260.765 553.091 262.53C554.187 264.275 554.73 266.221 554.719 268.366L554.62 289.085L548.026 289.116L548.125 268.491C548.132 267.116 547.575 265.921 546.455 264.905C545.356 263.869 544.056 263.354 542.556 263.361L532.369 263.409L532.245 289.189L525.651 289.22L525.865 244.783Z" fill="#D9D9D9"/>
<path d="M205.487 251.624L201.241 249.024L201.229 249.044L201.216 249.064L205.487 251.624ZM209.505 247.731L211.977 252.053L211.985 252.048L211.994 252.043L209.505 247.731ZM238.074 246.128L243.074 246.105L243.098 241.105L238.099 241.128L238.074 246.128ZM238.043 252.691L238.019 257.691L243.019 257.667L243.043 252.667L238.043 252.691ZM234.699 265.643L232.146 269.966L232.166 269.978L232.186 269.99L234.699 265.643ZM238.649 269.531L234.34 272.108L234.359 272.14L234.379 272.171L238.649 269.531ZM238.574 285.218L234.313 282.642L234.309 282.65L234.304 282.658L238.574 285.218ZM234.586 289.143L237.058 293.466L237.078 293.454L237.098 293.442L234.586 289.143ZM203.861 290.724L198.861 290.748L198.837 295.748L203.837 295.724L203.861 290.724ZM203.893 284.131L203.917 279.131L198.917 279.154L198.893 284.154L203.893 284.131ZM232.18 282.78L235.608 286.386L235.61 286.384L232.18 282.78ZM232.231 271.999L228.723 275.594L228.744 275.615L228.766 275.635L232.231 271.999ZM209.401 269.449L206.888 273.795L206.919 273.813L206.952 273.831L209.401 269.449ZM205.419 265.624L201.139 268.249L201.151 268.269L201.164 268.289L205.419 265.624ZM208.992 257.014C208.997 255.903 209.264 254.999 209.757 254.185L201.216 249.064C199.735 251.509 199.006 254.213 198.992 257.061L208.992 257.014ZM209.732 254.225C210.297 253.312 211.024 252.604 211.977 252.053L207.034 243.408C204.644 244.789 202.692 246.677 201.241 249.024L209.732 254.225ZM211.994 252.043C212.893 251.519 213.878 251.241 215.051 251.236L215.099 241.236C212.23 241.249 209.501 241.968 207.017 243.418L211.994 252.043ZM215.051 251.236L238.05 251.128L238.099 241.128L215.099 241.236L215.051 251.236ZM233.075 246.152L233.043 252.714L243.043 252.667L243.074 246.105L233.075 246.152ZM238.067 247.691L215.067 247.798L215.019 257.798L238.019 257.691L238.067 247.691ZM215.067 247.798C212.536 247.81 210.241 248.771 208.437 250.533L215.387 257.656C215.405 257.638 215.352 257.693 215.229 257.744C215.173 257.767 215.12 257.782 215.077 257.79C215.034 257.799 215.013 257.798 215.019 257.798L215.067 247.798ZM208.437 250.533C206.602 252.323 205.597 254.644 205.585 257.217L215.585 257.171C215.585 257.171 215.585 257.178 215.583 257.194C215.582 257.209 215.579 257.23 215.573 257.256C215.562 257.311 215.543 257.376 215.514 257.444C215.451 257.592 215.38 257.663 215.387 257.656L208.437 250.533ZM205.585 257.217L205.57 260.28L215.57 260.233L215.585 257.171L205.585 257.217ZM205.57 260.28C205.557 262.902 206.663 265.16 208.496 266.817L215.241 259.371C215.238 259.368 215.343 259.465 215.44 259.677C215.541 259.898 215.57 260.104 215.57 260.233L205.57 260.28ZM208.496 266.817C210.307 268.454 212.549 269.278 214.964 269.267L215.012 259.267C214.984 259.267 214.983 259.265 215.003 259.268C215.025 259.272 215.059 259.28 215.1 259.296C215.142 259.311 215.179 259.33 215.207 259.348C215.236 259.365 215.247 259.376 215.241 259.371L208.496 266.817ZM214.964 269.267L229.12 269.201L229.168 259.201L215.012 259.267L214.964 269.267ZM229.12 269.201C230.323 269.195 231.293 269.468 232.146 269.966L237.253 261.321C234.782 259.876 232.048 259.187 229.168 259.201L229.12 269.201ZM232.186 269.99C233.109 270.517 233.806 271.205 234.34 272.108L242.959 266.955C241.55 264.575 239.614 262.671 237.213 261.297L232.186 269.99ZM234.379 272.171C234.871 272.976 235.129 273.864 235.123 274.954L245.123 274.907C245.137 272.039 244.412 269.327 242.92 266.891L234.379 272.171ZM235.123 274.954L235.1 279.797L245.1 279.751L245.123 274.907L235.123 274.954ZM235.1 279.797C235.095 280.887 234.828 281.799 234.313 282.642L242.834 287.795C244.335 285.337 245.086 282.619 245.1 279.751L235.1 279.797ZM234.304 282.658C233.759 283.558 233.04 284.274 232.074 284.844L237.098 293.442C239.476 292.038 241.415 290.138 242.844 287.779L234.304 282.658ZM232.115 284.82C231.251 285.32 230.264 285.601 229.041 285.607L228.993 295.607C231.853 295.593 234.579 294.899 237.058 293.466L232.115 284.82ZM229.041 285.607L203.885 285.724L203.837 295.724L228.993 295.607L229.041 285.607ZM208.861 290.701L208.893 284.107L198.893 284.154L198.861 290.748L208.861 290.701ZM203.869 289.131L229.025 289.013L229.073 279.013L203.917 279.131L203.869 289.131ZM229.025 289.013C231.476 289.001 233.773 288.132 235.608 286.386L228.751 279.173C228.755 279.169 228.777 279.149 228.818 279.123C228.859 279.096 228.907 279.071 228.959 279.051C229.072 279.006 229.128 279.013 229.073 279.013L229.025 289.013ZM235.61 286.384C237.445 284.637 238.494 282.339 238.506 279.75L228.507 279.797C228.507 279.739 228.522 279.592 228.599 279.417C228.675 279.246 228.757 279.167 228.749 279.175L235.61 286.384ZM238.506 279.75L238.529 274.969L228.53 275.016L228.507 279.797L238.506 279.75ZM238.529 274.969C238.542 272.38 237.515 270.092 235.697 268.362L228.766 275.635C228.774 275.643 228.693 275.565 228.619 275.394C228.543 275.22 228.529 275.074 228.53 275.016L238.529 274.969ZM235.74 268.403C233.93 266.637 231.627 265.752 229.137 265.763L229.088 275.763C229.128 275.763 229.058 275.768 228.935 275.719C228.878 275.696 228.827 275.669 228.786 275.642C228.745 275.615 228.725 275.596 228.723 275.594L235.74 268.403ZM229.137 265.763L214.98 265.829L214.932 275.829L229.088 275.763L229.137 265.763ZM214.98 265.829C213.768 265.835 212.757 265.568 211.85 265.067L206.952 273.831C209.41 275.189 212.103 275.842 214.932 275.829L214.98 265.829ZM211.914 265.103C210.951 264.552 210.227 263.85 209.675 262.959L201.164 268.289C202.596 270.597 204.526 272.445 206.888 273.795L211.914 265.103ZM209.7 262.999C209.218 262.207 208.971 261.343 208.976 260.295L198.976 260.342C198.963 263.169 199.677 265.842 201.139 268.249L209.7 262.999ZM208.976 260.295L208.992 257.014L198.992 257.061L198.976 260.342L208.976 260.295ZM259.357 260.06L262.79 263.662L262.805 263.648L262.819 263.634L259.357 260.06ZM282.422 259.264L279.792 263.541L279.829 263.564L279.866 263.586L282.422 259.264ZM285.781 262.655L281.443 265.183L281.465 265.22L281.487 265.257L285.781 262.655ZM285.731 272.967L281.462 270.405L281.456 270.415L281.451 270.424L285.731 272.967ZM282.34 276.358L284.882 280.639L284.892 280.633L284.901 280.628L282.34 276.358ZM267.584 277.677L262.584 277.7L262.56 282.7L267.56 282.677L267.584 277.677ZM267.616 271.114L267.64 266.114L262.64 266.138L262.616 271.138L267.616 271.114ZM279.651 270.246L276.132 266.727L276.097 266.762L276.063 266.797L279.651 270.246ZM279.674 265.402L276.053 268.884L276.087 268.92L276.122 268.954L279.674 265.402ZM263.897 264.663L263.921 259.663L258.921 259.687L258.897 264.687L263.897 264.663ZM284.679 283.753L289.679 283.73L289.703 278.73L284.703 278.753L284.679 283.753ZM284.648 290.347L284.624 295.347L289.624 295.323L289.648 290.323L284.648 290.347ZM261.685 289.235L259.073 293.523L259.097 293.538L259.121 293.552L261.685 289.235ZM258.42 285.938L254.086 288.474L254.095 288.488L254.103 288.502L258.42 285.938ZM262.303 264.764C262.305 264.292 262.413 264.021 262.79 263.662L255.923 256.458C253.579 258.694 252.318 261.576 252.303 264.811L262.303 264.764ZM262.819 263.634C263.237 263.229 263.613 263.071 264.217 263.068L264.265 253.068C261.078 253.083 258.197 254.253 255.894 256.486L262.819 263.634ZM264.217 263.068L277.717 263.005L277.765 253.005L264.265 253.068L264.217 263.068ZM277.717 263.005C278.58 263.001 279.229 263.198 279.792 263.541L285.053 254.987C282.833 253.635 280.361 252.993 277.765 253.005L277.717 263.005ZM279.866 263.586C280.531 263.975 281.04 264.483 281.443 265.183L290.119 260.127C288.869 257.959 287.139 256.208 284.978 254.943L279.866 263.586ZM281.487 265.257C281.846 265.856 282.044 266.529 282.039 267.391L292.039 267.344C292.052 264.748 291.41 262.279 290.075 260.053L281.487 265.257ZM282.039 267.391L282.035 268.297L292.035 268.25L292.039 267.344L282.039 267.391ZM282.035 268.297C282.031 269.127 281.833 269.793 281.462 270.405L290.001 275.529C291.351 273.3 292.023 270.837 292.035 268.25L282.035 268.297ZM281.451 270.424C281.042 271.104 280.508 271.647 279.779 272.088L284.901 280.628C287.014 279.348 288.74 277.629 290.012 275.51L281.451 270.424ZM279.798 272.077C279.225 272.421 278.557 272.626 277.671 272.63L277.623 282.63C280.194 282.618 282.656 281.975 284.882 280.639L279.798 272.077ZM277.671 272.63L267.608 272.677L267.56 282.677L277.623 282.63L277.671 272.63ZM272.584 277.653L272.616 271.091L262.616 271.138L262.584 277.7L272.584 277.653ZM267.592 276.114L277.717 276.067L277.765 266.067L267.64 266.114L267.592 276.114ZM277.717 276.067C279.83 276.057 281.77 275.221 283.238 273.694L276.063 266.797C276.228 266.625 276.488 266.421 276.842 266.269C277.197 266.116 277.524 266.068 277.765 266.067L277.717 276.067ZM283.169 273.765C284.662 272.272 285.463 270.337 285.473 268.25L275.473 268.297C275.474 268.084 275.515 267.786 275.652 267.459C275.789 267.13 275.974 266.885 276.132 266.727L283.169 273.765ZM285.473 268.25L285.477 267.375L275.477 267.422L275.473 268.297L285.473 268.25ZM285.477 267.375C285.487 265.307 284.733 263.357 283.227 261.85L276.122 268.954C275.952 268.784 275.768 268.533 275.638 268.209C275.509 267.888 275.476 267.606 275.477 267.422L285.477 267.375ZM283.295 261.92C281.841 260.407 279.909 259.589 277.796 259.598L277.748 269.598C277.507 269.599 277.18 269.554 276.827 269.405C276.475 269.256 276.217 269.054 276.053 268.884L283.295 261.92ZM277.796 259.598L263.921 259.663L263.873 269.663L277.748 269.598L277.796 259.598ZM258.897 264.687L258.817 281.311L268.817 281.265L268.897 264.64L258.897 264.687ZM258.817 281.311C258.808 283.276 259.514 285.126 260.9 286.574L268.154 279.621C268.331 279.806 268.516 280.07 268.649 280.407C268.78 280.741 268.818 281.045 268.817 281.265L258.817 281.311ZM260.9 286.574C262.308 288.043 264.188 288.849 266.249 288.839L266.297 278.839C266.574 278.838 266.933 278.89 267.313 279.051C267.692 279.212 267.972 279.431 268.154 279.621L260.9 286.574ZM266.249 288.839L284.655 288.753L284.703 278.753L266.297 278.839L266.249 288.839ZM279.679 283.776L279.648 290.37L289.648 290.323L289.679 283.73L279.679 283.776ZM284.672 285.347L266.266 285.433L266.218 295.433L284.624 295.347L284.672 285.347ZM266.266 285.433C265.453 285.437 264.818 285.253 264.249 284.919L259.121 293.552C261.294 294.83 263.697 295.444 266.218 295.433L266.266 285.433ZM264.297 284.947C263.624 284.541 263.124 284.033 262.737 283.374L254.103 288.502C255.328 290.586 257.004 292.275 259.073 293.523L264.297 284.947ZM262.753 283.403C262.403 282.797 262.219 282.139 262.223 281.327L252.223 281.374C252.211 283.894 252.825 286.295 254.086 288.474L262.753 283.403ZM262.223 281.327L262.303 264.764L252.303 264.811L252.223 281.374L262.223 281.327ZM302.309 257.89L302.334 252.89L297.334 252.914L297.31 257.914L302.309 257.89ZM306.528 257.871L306.504 262.87L311.504 262.847L311.528 257.847L306.528 257.871ZM306.586 245.808L306.61 240.808L301.61 240.832L301.586 245.832L306.586 245.808ZM313.18 245.777L318.18 245.754L318.204 240.754L313.204 240.777L313.18 245.777ZM313.122 257.84L308.122 257.863L308.098 262.863L313.098 262.84L313.122 257.84ZM323.09 257.793L328.09 257.77L328.114 252.77L323.115 252.793L323.09 257.793ZM323.059 264.387L323.035 269.387L328.035 269.363L328.059 264.363L323.059 264.387ZM313.09 264.433L313.114 259.433L308.114 259.457L308.09 264.457L313.09 264.433ZM313.814 282.867L310.331 286.487L310.401 286.555L310.474 286.619L313.814 282.867ZM322.966 283.574L327.966 283.551L327.99 278.551L322.991 278.574L322.966 283.574ZM322.935 290.168L322.911 295.168L327.911 295.144L327.935 290.144L322.935 290.168ZM311.003 289.005L308.42 293.31L308.457 293.332L308.495 293.354L311.003 289.005ZM307.644 285.708L303.339 288.291L303.361 288.329L303.384 288.366L307.644 285.708ZM306.496 264.464L311.496 264.441L311.52 259.441L306.521 259.464L306.496 264.464ZM302.278 264.484L297.278 264.507L297.254 269.507L302.254 269.484L302.278 264.484ZM302.285 262.89L306.504 262.87L306.552 252.871L302.334 252.89L302.285 262.89ZM311.528 257.847L311.586 245.785L301.586 245.832L301.528 257.894L311.528 257.847ZM306.562 250.808L313.156 250.777L313.204 240.777L306.61 240.808L306.562 250.808ZM308.18 245.801L308.122 257.863L318.122 257.816L318.18 245.754L308.18 245.801ZM313.098 262.84L323.066 262.793L323.115 252.793L313.146 252.84L313.098 262.84ZM318.091 257.816L318.059 264.41L328.059 264.363L328.09 257.77L318.091 257.816ZM323.083 259.387L313.114 259.433L313.066 269.433L323.035 269.387L323.083 259.387ZM308.09 264.457L308.01 281.05L318.01 281.004L318.09 264.41L308.09 264.457ZM308.01 281.05C308 283.208 308.882 285.095 310.331 286.487L317.297 279.247C317.439 279.384 317.638 279.625 317.794 279.98C317.952 280.342 318.012 280.702 318.01 281.004L308.01 281.05ZM310.474 286.619C311.97 287.947 313.824 288.617 315.786 288.607L315.834 278.608C315.999 278.607 316.239 278.634 316.511 278.735C316.785 278.837 317.003 278.98 317.154 279.114L310.474 286.619ZM315.786 288.607L322.942 288.574L322.991 278.574L315.834 278.608L315.786 288.607ZM317.967 283.597L317.935 290.191L327.935 290.144L327.966 283.551L317.967 283.597ZM322.959 285.168L315.709 285.202L315.661 295.202L322.911 295.168L322.959 285.168ZM315.709 285.202C314.832 285.206 314.134 285.011 313.512 284.656L308.495 293.354C310.698 294.61 313.122 295.213 315.661 295.202L315.709 285.202ZM313.587 284.7C312.876 284.277 312.332 283.742 311.904 283.05L303.384 288.366C304.652 290.416 306.347 292.079 308.42 293.31L313.587 284.7ZM311.95 283.125C311.6 282.536 311.412 281.887 311.416 281.066L301.417 281.112C301.404 283.666 302.035 286.096 303.339 288.291L311.95 283.125ZM311.416 281.066L311.496 264.441L301.497 264.488L301.417 281.112L311.416 281.066ZM306.521 259.464L302.302 259.484L302.254 269.484L306.472 269.464L306.521 259.464ZM307.278 264.461L307.309 257.867L297.31 257.914L297.278 264.507L307.278 264.461ZM339.342 245.655L339.366 240.655L334.366 240.678L334.342 245.678L339.342 245.655ZM345.373 245.627L349.258 242.443L347.767 240.616L345.397 240.627L345.373 245.627ZM359.633 263.091L355.748 266.275L359.595 270.987L363.487 266.239L359.633 263.091ZM374.06 245.493L374.085 240.493L371.715 240.504L370.206 242.345L374.06 245.493ZM380.092 245.465L385.092 245.441L385.116 240.441L380.116 240.465L380.092 245.465ZM379.878 289.902L379.854 294.902L384.854 294.878L384.878 289.878L379.878 289.902ZM373.284 289.932L368.284 289.956L368.26 294.956L373.26 294.932L373.284 289.932ZM373.444 256.714L378.444 256.691L378.511 242.77L369.602 253.551L373.444 256.714ZM362.349 270.14L362.324 275.14L364.682 275.129L366.191 273.304L362.349 270.14ZM356.88 270.166L353.012 273.371L354.503 275.177L356.856 275.166L356.88 270.166ZM345.882 256.843L349.75 253.638L340.949 242.976L340.882 256.866L345.882 256.843ZM345.722 290.061L345.698 295.061L350.698 295.038L350.722 290.038L345.722 290.061ZM339.128 290.092L334.128 290.115L334.104 295.115L339.104 295.092L339.128 290.092ZM339.318 250.655L345.349 250.627L345.397 240.627L339.366 240.655L339.318 250.655ZM341.488 248.811L355.748 266.275L363.518 259.907L349.258 242.443L341.488 248.811ZM363.487 266.239L377.915 248.641L370.206 242.345L355.778 259.943L363.487 266.239ZM374.036 250.493L380.068 250.465L380.116 240.465L374.085 240.493L374.036 250.493ZM375.092 245.488L374.878 289.925L384.878 289.878L385.092 245.441L375.092 245.488ZM379.902 284.902L373.308 284.932L373.26 294.932L379.854 294.902L379.902 284.902ZM378.284 289.909L378.444 256.691L368.444 256.737L368.284 289.956L378.284 289.909ZM369.602 253.551L358.507 266.977L366.191 273.304L377.286 259.877L369.602 253.551ZM362.373 265.14L356.904 265.166L356.856 275.166L362.324 275.14L362.373 265.14ZM360.748 266.961L349.75 253.638L342.014 260.048L353.012 273.371L360.748 266.961ZM340.882 256.866L340.722 290.085L350.722 290.038L350.882 256.819L340.882 256.866ZM345.746 285.061L339.152 285.092L339.104 295.092L345.698 295.061L345.746 285.061ZM344.128 290.069L344.342 245.632L334.342 245.678L334.128 290.115L344.128 290.069ZM398.981 263.219L394.719 260.645L394.708 260.663L394.696 260.682L398.981 263.219ZM403.251 259.012L405.765 263.31L405.784 263.299L405.803 263.288L403.251 259.012ZM427.196 257.307L432.196 257.283L432.22 252.283L427.22 252.307L427.196 257.307ZM427.04 289.681L427.016 294.681L432.016 294.658L432.04 289.658L427.04 289.681ZM420.446 289.712L415.446 289.735L415.422 294.735L420.422 294.712L420.446 289.712ZM420.57 263.931L425.57 263.908L425.594 258.908L420.594 258.931L420.57 263.931ZM405.501 265.501L408.982 269.058L409 269.039L409.019 269.02L405.501 265.501ZM405.423 281.689L401.834 285.204L401.852 285.223L401.87 285.241L405.423 281.689ZM416.728 283.136L421.728 283.112L421.752 278.113L416.752 278.136L416.728 283.136ZM416.696 289.73L416.672 294.729L421.672 294.706L421.696 289.706L416.696 289.73ZM403.11 288.231L400.517 292.53L400.536 292.541L400.554 292.552L403.11 288.231ZM398.881 284L394.559 286.556L394.57 286.574L394.581 286.593L398.881 284ZM402.39 269.047C402.396 267.751 402.704 266.694 403.265 265.757L394.696 260.682C393.157 263.255 392.404 266.098 392.39 269.094L402.39 269.047ZM403.242 265.794C403.879 264.751 404.701 263.939 405.765 263.31L400.736 254.714C398.249 256.185 396.224 258.178 394.719 260.645L403.242 265.794ZM405.803 263.288C406.768 262.706 407.833 262.397 409.109 262.391L409.157 252.391C406.142 252.405 403.285 253.177 400.699 254.737L405.803 263.288ZM409.109 262.391L427.172 262.306L427.22 252.307L409.157 252.391L409.109 262.391ZM422.196 257.33L422.04 289.705L432.04 289.658L432.196 257.283L422.196 257.33ZM427.064 284.681L420.47 284.712L420.422 294.712L427.016 294.681L427.064 284.681ZM425.446 289.689L425.57 263.908L415.57 263.954L415.446 289.735L425.446 289.689ZM420.594 258.931L409.126 258.985L409.078 268.985L420.546 268.931L420.594 258.931ZM409.126 258.985C406.384 258.997 403.915 260.05 401.982 261.982L409.019 269.02C409.063 268.976 409.087 268.96 409.09 268.958C409.091 268.957 409.08 268.965 409.058 268.974C409.037 268.983 409.02 268.987 409.014 268.988C409.009 268.989 409.028 268.985 409.078 268.985L409.126 258.985ZM402.02 261.945C400.037 263.887 398.997 266.383 398.983 269.125L408.983 269.079C408.983 269.049 408.985 269.028 408.986 269.015C408.987 269.002 408.989 268.996 408.988 268.996C408.988 268.997 408.987 269.002 408.985 269.011C408.982 269.02 408.978 269.032 408.973 269.044C408.968 269.056 408.962 269.067 408.956 269.077C408.951 269.087 408.947 269.094 408.944 269.097C408.942 269.101 408.943 269.099 408.948 269.093C408.954 269.086 408.964 269.075 408.982 269.058L402.02 261.945ZM398.983 269.125L398.94 278.063L408.94 278.016L408.983 269.079L398.983 269.125ZM398.94 278.063C398.927 280.8 399.937 283.267 401.834 285.204L409.011 278.173C408.965 278.125 408.944 278.096 408.938 278.087C408.933 278.079 408.936 278.083 408.941 278.095C408.946 278.107 408.947 278.114 408.946 278.11C408.945 278.104 408.94 278.075 408.94 278.016L398.94 278.063ZM401.87 285.241C403.785 287.156 406.244 288.185 408.985 288.172L409.033 278.172C408.984 278.172 408.965 278.168 408.97 278.169C408.976 278.17 408.992 278.174 409.014 278.183C409.035 278.192 409.046 278.199 409.045 278.198C409.043 278.197 409.019 278.18 408.975 278.137L401.87 285.241ZM408.985 288.172L416.704 288.136L416.752 278.136L409.033 278.172L408.985 288.172ZM411.728 283.159L411.696 289.753L421.696 289.706L421.728 283.112L411.728 283.159ZM416.72 284.73L409.002 284.766L408.954 294.766L416.672 294.729L416.72 284.73ZM409.002 284.766C407.706 284.772 406.631 284.474 405.666 283.909L400.554 292.552C403.121 294.054 405.958 294.78 408.954 294.766L409.002 284.766ZM405.703 283.931C404.639 283.296 403.816 282.472 403.18 281.408L394.581 286.593C396.054 289.061 398.05 291.057 400.517 292.53L405.703 283.931ZM403.202 281.445C402.638 280.48 402.34 279.405 402.346 278.109L392.346 278.156C392.332 281.152 393.057 283.989 394.559 286.556L403.202 281.445ZM402.346 278.109L402.39 269.047L392.39 269.094L392.346 278.156L402.346 278.109ZM442.733 257.234L442.757 252.234L437.757 252.257L437.733 257.257L442.733 257.234ZM446.952 257.214L446.928 262.214L451.928 262.191L451.952 257.191L446.952 257.214ZM447.01 245.152L447.034 240.152L442.034 240.175L442.01 245.175L447.01 245.152ZM453.603 245.121L458.603 245.098L458.627 240.098L453.627 240.121L453.603 245.121ZM453.545 257.183L448.545 257.207L448.521 262.207L453.521 262.183L453.545 257.183ZM463.514 257.137L468.514 257.113L468.538 252.113L463.538 252.137L463.514 257.137ZM463.482 263.73L463.458 268.73L468.458 268.707L468.482 263.707L463.482 263.73ZM453.514 263.777L453.538 258.777L448.538 258.8L448.514 263.8L453.514 263.777ZM454.237 282.211L450.755 285.831L450.825 285.898L450.898 285.963L454.237 282.211ZM463.39 282.918L468.39 282.894L468.414 277.894L463.414 277.918L463.39 282.918ZM463.358 289.511L463.334 294.511L468.334 294.488L468.358 289.488L463.358 289.511ZM451.427 288.348L448.843 292.654L448.88 292.676L448.918 292.697L451.427 288.348ZM448.068 285.052L443.762 287.635L443.785 287.673L443.808 287.71L448.068 285.052ZM446.92 263.808L451.92 263.785L451.944 258.785L446.944 258.808L446.92 263.808ZM442.701 263.828L437.701 263.851L437.677 268.851L442.677 268.828L442.701 263.828ZM442.709 262.234L446.928 262.214L446.976 252.214L442.757 252.234L442.709 262.234ZM451.952 257.191L452.01 245.128L442.01 245.175L441.952 257.238L451.952 257.191ZM446.986 250.152L453.579 250.121L453.627 240.121L447.034 240.152L446.986 250.152ZM448.603 245.144L448.545 257.207L458.545 257.16L458.603 245.098L448.603 245.144ZM453.521 262.183L463.49 262.137L463.538 252.137L453.569 252.183L453.521 262.183ZM458.514 257.16L458.482 263.754L468.482 263.707L468.514 257.113L458.514 257.16ZM463.506 258.731L453.538 258.777L453.49 268.777L463.458 268.73L463.506 258.731ZM448.514 263.8L448.434 280.394L458.434 280.347L458.514 263.754L448.514 263.8ZM448.434 280.394C448.423 282.552 449.306 284.438 450.755 285.831L457.72 278.59C457.863 278.727 458.062 278.969 458.217 279.324C458.375 279.686 458.435 280.046 458.434 280.347L448.434 280.394ZM450.898 285.963C452.393 287.291 454.247 287.96 456.21 287.951L456.258 277.951C456.422 277.95 456.662 277.978 456.935 278.079C457.209 278.181 457.426 278.324 457.577 278.458L450.898 285.963ZM456.21 287.951L463.366 287.918L463.414 277.918L456.258 277.951L456.21 287.951ZM458.39 282.941L458.358 289.535L468.358 289.488L468.39 282.894L458.39 282.941ZM463.382 284.511L456.132 284.545L456.084 294.545L463.334 294.511L463.382 284.511ZM456.132 284.545C455.255 284.549 454.557 284.355 453.935 284L448.918 292.697C451.121 293.954 453.545 294.557 456.084 294.545L456.132 284.545ZM454.01 284.043C453.299 283.621 452.755 283.085 452.328 282.394L443.808 287.71C445.075 289.76 446.771 291.423 448.843 292.654L454.01 284.043ZM452.373 282.469C452.023 281.88 451.836 281.23 451.84 280.409L441.84 280.456C441.828 283.01 442.459 285.44 443.762 287.635L452.373 282.469ZM451.84 280.409L451.92 263.785L441.92 263.831L441.84 280.456L451.84 280.409ZM446.944 258.808L442.725 258.828L442.677 268.828L446.896 268.808L446.944 258.808ZM447.701 263.804L447.733 257.211L437.733 257.257L437.701 263.851L447.701 263.804ZM484.731 258.631L487.202 262.955L487.22 262.944L487.239 262.933L484.731 258.631ZM508.988 256.924L513.988 256.901L514.012 251.901L509.013 251.924L508.988 256.924ZM508.957 263.518L508.933 268.518L513.933 268.495L513.957 263.495L508.957 263.518ZM486.918 265.152L490.328 268.777L490.346 268.759L490.365 268.741L486.918 265.152ZM486.81 281.277L483.293 284.864L483.31 284.882L483.328 284.899L486.81 281.277ZM508.864 282.705L513.864 282.682L513.888 277.682L508.889 277.705L508.864 282.705ZM508.833 289.299L508.809 294.299L513.809 294.275L513.833 289.276L508.833 289.299ZM480.267 283.589L475.976 286.196L475.983 286.207L475.99 286.218L480.267 283.589ZM483.714 268.729C483.72 267.472 484.029 266.42 484.62 265.46L476.115 260.281C474.521 262.872 473.728 265.742 473.714 268.776L483.714 268.729ZM484.62 265.46C485.268 264.406 486.107 263.587 487.202 262.955L482.261 254.308C479.72 255.776 477.65 257.783 476.115 260.281L484.62 265.46ZM487.239 262.933C488.248 262.339 489.379 262.016 490.746 262.009L490.794 252.009C487.744 252.024 484.85 252.782 482.223 254.33L487.239 262.933ZM490.746 262.009L508.964 261.924L509.013 251.924L490.794 252.009L490.746 262.009ZM503.989 256.948L503.957 263.541L513.957 263.495L513.988 256.901L503.989 256.948ZM508.981 258.518L490.762 258.603L490.714 268.603L508.933 268.518L508.981 258.518ZM490.762 258.603C487.997 258.616 485.479 259.634 483.472 261.563L490.365 268.741C490.421 268.687 490.46 268.659 490.481 268.646C490.5 268.633 490.511 268.628 490.515 268.627C490.519 268.625 490.531 268.62 490.556 268.616C490.582 268.611 490.633 268.603 490.714 268.603L490.762 258.603ZM483.509 261.527C481.451 263.466 480.321 266 480.307 268.839L490.307 268.792C490.307 268.767 490.308 268.75 490.309 268.742C490.31 268.733 490.311 268.732 490.31 268.736C490.309 268.74 490.307 268.749 490.303 268.761C490.299 268.772 490.295 268.785 490.289 268.798C490.283 268.811 490.277 268.822 490.272 268.831C490.27 268.835 490.268 268.839 490.266 268.841C490.265 268.843 490.264 268.844 490.264 268.844C490.264 268.844 490.265 268.843 490.267 268.84C490.27 268.838 490.273 268.833 490.278 268.828C490.288 268.817 490.304 268.8 490.328 268.777L483.509 261.527ZM480.307 268.839L480.265 277.62L490.265 277.574L490.307 268.792L480.307 268.839ZM480.265 277.62C480.251 280.423 481.317 282.928 483.293 284.864L490.326 277.69C490.276 277.641 490.255 277.611 490.25 277.604C490.246 277.598 490.252 277.605 490.259 277.623C490.262 277.631 490.265 277.638 490.267 277.645C490.269 277.651 490.269 277.655 490.269 277.654C490.269 277.654 490.268 277.648 490.267 277.635C490.266 277.622 490.265 277.602 490.265 277.574L480.265 277.62ZM483.328 284.899C485.331 286.823 487.856 287.803 490.622 287.79L490.67 277.79C490.498 277.791 490.437 277.765 490.435 277.764C490.428 277.761 490.417 277.756 490.399 277.745C490.38 277.732 490.344 277.706 490.291 277.655L483.328 284.899ZM490.622 287.79L508.84 287.705L508.889 277.705L490.67 277.79L490.622 287.79ZM503.865 282.729L503.833 289.322L513.833 289.276L513.864 282.682L503.865 282.729ZM508.857 284.299L490.638 284.384L490.59 294.384L508.809 294.299L508.857 284.299ZM490.638 284.384C489.272 284.39 488.143 284.078 487.14 283.493L482.041 292.144C484.653 293.667 487.54 294.398 490.59 294.384L490.638 284.384ZM487.14 283.493C486.032 282.847 485.188 282.016 484.545 280.96L475.99 286.218C477.496 288.693 479.535 290.682 482.041 292.144L487.14 283.493ZM484.558 280.982C483.964 279.994 483.665 278.925 483.671 277.667L473.671 277.714C473.656 280.748 474.421 283.611 475.976 286.196L484.558 280.982ZM483.671 277.667L483.714 268.729L473.714 268.776L473.671 277.714L483.671 277.667ZM525.865 244.783L525.889 239.783L520.889 239.807L520.865 244.807L525.865 244.783ZM532.459 244.752L537.459 244.729L537.483 239.729L532.483 239.753L532.459 244.752ZM532.401 256.815L527.401 256.838L527.377 261.838L532.377 261.815L532.401 256.815ZM548.705 258.332L546.177 262.67L546.206 262.687L546.235 262.703L548.705 258.332ZM553.091 262.53L548.814 265.16L548.832 265.189L548.85 265.218L553.091 262.53ZM554.62 289.085L554.596 294.085L559.596 294.061L559.62 289.062L554.62 289.085ZM548.026 289.116L543.026 289.139L543.002 294.139L548.002 294.116L548.026 289.116ZM546.455 264.905L543.007 268.558L543.042 268.591L543.077 268.624L546.455 264.905ZM532.369 263.409L532.393 258.409L527.393 258.432L527.369 263.432L532.369 263.409ZM532.245 289.189L532.221 294.189L537.221 294.166L537.245 289.166L532.245 289.189ZM525.651 289.22L520.651 289.244L520.627 294.244L525.627 294.22L525.651 289.22ZM525.841 249.783L532.435 249.752L532.483 239.753L525.889 239.783L525.841 249.783ZM527.459 244.776L527.401 256.838L537.401 256.791L537.459 244.729L527.459 244.776ZM532.377 261.815L542.564 261.767L542.612 251.767L532.425 251.815L532.377 261.815ZM542.564 261.767C543.99 261.761 545.156 262.081 546.177 262.67L551.233 253.995C548.598 252.476 545.686 251.753 542.612 251.767L542.564 261.767ZM546.235 262.703C547.361 263.331 548.192 264.139 548.814 265.16L557.369 259.901C555.841 257.39 553.748 255.399 551.175 253.962L546.235 262.703ZM548.85 265.218C549.426 266.136 549.725 267.151 549.719 268.39L559.719 268.343C559.734 265.29 558.948 262.414 557.333 259.843L548.85 265.218ZM549.719 268.39L549.62 289.108L559.62 289.062L559.719 268.343L549.719 268.39ZM554.644 284.085L548.05 284.116L548.002 294.116L554.596 294.085L554.644 284.085ZM553.026 289.092L553.125 268.468L543.125 268.514L543.026 289.139L553.026 289.092ZM553.125 268.468C553.139 265.526 551.871 263.035 549.833 261.187L543.077 268.624C543.151 268.691 543.186 268.733 543.195 268.746C543.204 268.758 543.193 268.745 543.177 268.71C543.16 268.673 543.144 268.629 543.135 268.584C543.125 268.54 543.125 268.514 543.125 268.514L553.125 268.468ZM549.904 261.252C547.893 259.356 545.373 258.348 542.58 258.361L542.532 268.361C542.691 268.36 542.757 268.385 542.777 268.393C542.798 268.401 542.874 268.433 543.007 268.558L549.904 261.252ZM542.58 258.361L532.393 258.409L532.345 268.408L542.532 268.361L542.58 258.361ZM527.369 263.432L527.245 289.213L537.245 289.166L537.369 263.385L527.369 263.432ZM532.269 284.19L525.675 284.22L525.627 294.22L532.221 294.189L532.269 284.19ZM530.651 289.197L530.865 244.76L520.865 244.807L520.651 289.244L530.651 289.197Z" fill="#DD9786" mask="url(#path-2-outside-1_7_201)"/>
<circle cx="165.131" cy="114.131" r="114.131" fill="#D9D9D9"/>
<path d="M212.957 166.305C194.358 188.285 149.913 229.493 120.928 218.479" stroke="#CD7D69" stroke-width="2.5"/>
<circle cx="165.131" cy="114.131" r="112.881" stroke="#CD7D69" stroke-width="2.5"/>
<path d="M167.667 76.0872C206.208 94.5053 266.943 132.422 253.422 185.508" stroke="#CD7D69" stroke-width="2.5"/>
<path d="M156.073 116.667C159.784 85.1661 181.502 23.2849 238.682 27.7672" stroke="#CD7D69" stroke-width="2.5"/>
<path d="M156.073 116.667C185.536 132.44 238.924 174.232 216.773 215.218" stroke="#CD7D69" stroke-width="2.5"/>
<path d="M156.073 116.667C130.952 138.374 75.6377 173.676 55.3478 141.227" stroke="#CD7D69" stroke-width="2.5"/>
<path d="M193.029 41.3044C221.893 53.518 279.252 87.4287 277.785 125.363" stroke="#CD7D69" stroke-width="2.5"/>
<path d="M185.783 136.232C166.585 169.04 106.878 208.779 74.9131 183.062" stroke="#CD7D69" stroke-width="2.5"/>
<path d="M118.545 142.059C113.141 103.384 132.131 18.2239 185.421 2.89856M84.3582 154.348C75.782 123.264 79.424 47.4323 127.356 7.23941" stroke="#CD7D69" stroke-width="2.5"/>
<rect y="98" width="28" height="340" fill="#CD7D69"/>
<rect x="572" y="98" width="28" height="340" fill="#CD7D69"/>
</svg>
