<svg width="106" height="105" viewBox="0 0 106 105" fill="none" xmlns="http://www.w3.org/2000/svg">
<circle cx="52.5" cy="52.5" r="52.5" fill="#D9D9D9"/>
<path d="M74.5 76.5C65.9445 86.6111 45.5 105.567 32.1667 100.5" stroke="#CD7D69" stroke-width="2.5"/>
<circle cx="52.5" cy="52.5" r="51.25" stroke="#CD7D69" stroke-width="2.5"/>
<path d="M53.6667 35C71.3957 43.4723 99.3336 60.9142 93.1137 85.3333" stroke="#CD7D69" stroke-width="2.5"/>
<path d="M48.3333 53.6667C50.0406 39.1763 60.0307 10.711 86.3333 12.7729" stroke="#CD7D69" stroke-width="2.5"/>
<path d="M48.3333 53.6667C61.8862 60.9222 86.4446 80.1466 76.2555 99" stroke="#CD7D69" stroke-width="2.5"/>
<path d="M48.3333 53.6667C36.7778 63.652 11.3333 79.8909 2 64.9643" stroke="#CD7D69" stroke-width="2.5"/>
<path d="M65.3333 19C78.6104 24.6182 104.996 40.2171 104.321 57.6667" stroke="#CD7D69" stroke-width="2.5"/>
<path d="M62 62.6667C53.1688 77.7582 25.7039 96.0383 11 84.2085" stroke="#CD7D69" stroke-width="2.5"/>
<path d="M31.0707 65.347C28.5848 47.5566 37.3203 8.38295 61.8334 1.33331M15.3447 71C11.3997 56.7012 13.075 21.8188 35.1238 3.3301" stroke="#CD7D69" stroke-width="2.5"/>
<mask id="path-11-outside-1_8_61" maskUnits="userSpaceOnUse" x="5.00463" y="34.9926" width="94.1192" height="27.4736" fill="black">
<rect fill="white" x="5.00463" y="34.9926" width="94.1192" height="27.4736"/>
<path d="M10.941 49.5412C10.943 49.0774 11.0597 48.6544 11.2909 48.2724C11.5269 47.8904 11.8408 47.5861 12.2324 47.3595C12.6289 47.128 13.064 47.0111 13.5376 47.0087L18.9282 46.9815L18.9213 48.5196L13.5308 48.5468C13.2476 48.5482 13.003 48.6495 12.797 48.8507C12.591 49.052 12.4874 49.2942 12.4862 49.5774L12.483 50.2951C12.4818 50.5539 12.5834 50.7756 12.7876 50.9601C12.9918 51.1446 13.2356 51.2361 13.5188 51.2347L16.8366 51.218C17.3151 51.2156 17.7492 51.3281 18.1388 51.5557C18.5284 51.7783 18.8371 52.0819 19.0648 52.4665C19.2975 52.8462 19.4128 53.2679 19.4107 53.7318L19.4057 54.867C19.4036 55.3309 19.2845 55.7563 19.0484 56.1432C18.8173 56.5252 18.5058 56.832 18.1142 57.0634C17.7226 57.29 17.2875 57.4045 16.809 57.4069L10.9131 57.4366L10.92 55.8912L16.8159 55.8615C17.104 55.86 17.3485 55.7636 17.5496 55.5722C17.7555 55.3758 17.8591 55.1409 17.8603 54.8675L17.8653 53.7469C17.8665 53.4735 17.7651 53.2396 17.5608 53.0453C17.3615 52.851 17.1178 52.7546 16.8297 52.7561L13.5119 52.7728C13.0383 52.7752 12.6042 52.6675 12.2097 52.4498C11.8201 52.2271 11.5089 51.9284 11.2762 51.5536C11.0484 51.1788 10.9355 50.7644 10.9375 50.3103L10.941 49.5412ZM23.4364 51.3532C23.4383 50.9186 23.5986 50.5492 23.9174 50.2448C24.2361 49.9356 24.6176 49.7799 25.062 49.7776L28.226 49.7617C28.6313 49.7597 28.997 49.8579 29.3233 50.0564C29.6544 50.2501 29.9169 50.5149 30.1107 50.8508C30.3094 51.1818 30.4079 51.55 30.4061 51.9552L30.4051 52.1676C30.4033 52.568 30.3016 52.9347 30.0999 53.2678C29.9032 53.5959 29.6383 53.8609 29.3054 54.0628C28.9774 54.2597 28.6108 54.3592 28.2055 54.3613L25.8471 54.3731L25.854 52.8351L28.227 52.8231C28.4028 52.8222 28.552 52.758 28.6746 52.6304C28.8021 52.5028 28.8663 52.3487 28.8671 52.1681L28.868 51.963C28.8688 51.7774 28.8061 51.6215 28.6797 51.4952C28.5582 51.3689 28.4095 51.3061 28.2338 51.307L24.9818 51.3234L24.9645 55.2199C24.9637 55.3859 25.0192 55.5272 25.131 55.6438C25.2428 55.7604 25.3793 55.8183 25.5404 55.8175L29.8543 55.7958L29.8474 57.3412L25.5335 57.3629C25.1429 57.3649 24.7869 57.2715 24.4654 57.0827C24.1441 56.889 23.8889 56.6315 23.6999 56.3102C23.5109 55.984 23.4173 55.6256 23.419 55.235L23.4364 51.3532ZM33.9842 49.7327L34.973 49.7277L34.9856 46.9006L36.531 46.8928L36.5184 49.7199L38.8548 49.7081L38.8479 51.2535L36.5115 51.2653L36.4941 55.1544C36.4934 55.3204 36.5562 55.4641 36.6826 55.5856C36.8139 55.7021 36.9699 55.7599 37.1506 55.759L38.8278 55.7505L38.8209 57.2959L37.1217 57.3045C36.7213 57.3065 36.3556 57.2131 36.0244 57.0244C35.6981 56.8307 35.4356 56.5733 35.2368 56.252C35.043 55.9259 34.9469 55.565 34.9487 55.1695L34.9661 51.2731L33.9773 51.2781L33.9842 49.7327ZM42.6627 46.8619L44.0763 46.8547L47.4197 50.9466L50.7998 46.8208L52.2134 46.8137L52.1669 57.2286L50.6216 57.2364L50.6563 49.4509L48.0569 52.5986L46.7752 52.6051L44.1964 49.4834L44.1617 57.269L42.6163 57.2768L42.6627 46.8619ZM56.2696 52.3448C56.2719 51.8419 56.396 51.3848 56.642 50.9734C56.8928 50.562 57.2263 50.2332 57.6424 49.9869C58.0586 49.7358 58.5181 49.609 59.021 49.6065L63.2544 49.5851L63.2205 57.1729L61.6751 57.1807L61.7021 51.1383L59.0141 51.1518C58.687 51.1535 58.4057 51.2721 58.1703 51.5077C57.9349 51.7383 57.8164 52.0197 57.815 52.3517L57.8056 54.4464C57.8041 54.7784 57.9201 55.0635 58.1534 55.3016C58.3867 55.5348 58.6669 55.6505 58.9941 55.6489L60.8031 55.6398L60.7962 57.1851L58.9872 57.1943C58.4842 57.1968 58.0258 57.077 57.6119 56.835C57.1979 56.5881 56.8674 56.2577 56.6202 55.8439C56.3779 55.4301 56.2579 54.9718 56.2602 54.4688L56.2696 52.3448ZM66.8959 49.5668L67.8847 49.5618L67.8973 46.7346L69.4427 46.7269L69.4301 49.554L71.7665 49.5422L71.7596 51.0876L69.4232 51.0994L69.4058 54.9885C69.4051 55.1545 69.4679 55.2982 69.5943 55.4197C69.7256 55.5362 69.8816 55.594 70.0623 55.5931L71.7395 55.5846L71.7326 57.13L70.0334 57.1386C69.633 57.1406 69.2673 57.0472 68.9361 56.8585C68.6098 56.6648 68.3473 56.4074 68.1485 56.0861C67.9547 55.7599 67.8586 55.3991 67.8604 55.0036L67.8778 51.1072L66.889 51.1121L66.8959 49.5668ZM75.3299 52.2634C75.3321 51.7605 75.4611 51.3009 75.7169 50.8845C75.9726 50.4682 76.3134 50.1369 76.7393 49.8907C77.1652 49.6395 77.637 49.5126 78.1546 49.51L82.4245 49.4885L82.4176 51.0339L78.1477 51.0554C77.801 51.0571 77.5026 51.1783 77.2525 51.4188C77.0025 51.6544 76.8767 51.9407 76.8752 52.2776L76.866 54.3357C76.8645 54.6726 76.9853 54.9601 77.2283 55.1981C77.4763 55.4361 77.7761 55.5542 78.1276 55.5524L82.3976 55.5309L82.3907 57.0763L78.1207 57.0978C77.6031 57.1004 77.1325 56.9783 76.7088 56.7314C76.2851 56.4845 75.9473 56.1542 75.6952 55.7405C75.4432 55.3218 75.3183 54.861 75.3205 54.3581L75.3299 52.2634ZM86.379 46.6415L87.9244 46.6337L87.9118 49.4608L90.2994 49.4488C90.8268 49.4461 91.3047 49.5682 91.7333 49.8151C92.1668 50.057 92.5095 50.3849 92.7616 50.7986C93.0185 51.2075 93.1459 51.6634 93.1436 52.1663L93.122 57.0222L91.5766 57.03L91.5982 52.196C91.5996 51.8738 91.469 51.5937 91.2064 51.3558C90.9487 51.1129 90.6441 50.9924 90.2925 50.9942L87.9049 51.0062L87.8779 57.0486L86.3325 57.0564L86.379 46.6415Z"/>
</mask>
<path d="M10.941 49.5412C10.943 49.0774 11.0597 48.6544 11.2909 48.2724C11.5269 47.8904 11.8408 47.5861 12.2324 47.3595C12.6289 47.128 13.064 47.0111 13.5376 47.0087L18.9282 46.9815L18.9213 48.5196L13.5308 48.5468C13.2476 48.5482 13.003 48.6495 12.797 48.8507C12.591 49.052 12.4874 49.2942 12.4862 49.5774L12.483 50.2951C12.4818 50.5539 12.5834 50.7756 12.7876 50.9601C12.9918 51.1446 13.2356 51.2361 13.5188 51.2347L16.8366 51.218C17.3151 51.2156 17.7492 51.3281 18.1388 51.5557C18.5284 51.7783 18.8371 52.0819 19.0648 52.4665C19.2975 52.8462 19.4128 53.2679 19.4107 53.7318L19.4057 54.867C19.4036 55.3309 19.2845 55.7563 19.0484 56.1432C18.8173 56.5252 18.5058 56.832 18.1142 57.0634C17.7226 57.29 17.2875 57.4045 16.809 57.4069L10.9131 57.4366L10.92 55.8912L16.8159 55.8615C17.104 55.86 17.3485 55.7636 17.5496 55.5722C17.7555 55.3758 17.8591 55.1409 17.8603 54.8675L17.8653 53.7469C17.8665 53.4735 17.7651 53.2396 17.5608 53.0453C17.3615 52.851 17.1178 52.7546 16.8297 52.7561L13.5119 52.7728C13.0383 52.7752 12.6042 52.6675 12.2097 52.4498C11.8201 52.2271 11.5089 51.9284 11.2762 51.5536C11.0484 51.1788 10.9355 50.7644 10.9375 50.3103L10.941 49.5412ZM23.4364 51.3532C23.4383 50.9186 23.5986 50.5492 23.9174 50.2448C24.2361 49.9356 24.6176 49.7799 25.062 49.7776L28.226 49.7617C28.6313 49.7597 28.997 49.8579 29.3233 50.0564C29.6544 50.2501 29.9169 50.5149 30.1107 50.8508C30.3094 51.1818 30.4079 51.55 30.4061 51.9552L30.4051 52.1676C30.4033 52.568 30.3016 52.9347 30.0999 53.2678C29.9032 53.5959 29.6383 53.8609 29.3054 54.0628C28.9774 54.2597 28.6108 54.3592 28.2055 54.3613L25.8471 54.3731L25.854 52.8351L28.227 52.8231C28.4028 52.8222 28.552 52.758 28.6746 52.6304C28.8021 52.5028 28.8663 52.3487 28.8671 52.1681L28.868 51.963C28.8688 51.7774 28.8061 51.6215 28.6797 51.4952C28.5582 51.3689 28.4095 51.3061 28.2338 51.307L24.9818 51.3234L24.9645 55.2199C24.9637 55.3859 25.0192 55.5272 25.131 55.6438C25.2428 55.7604 25.3793 55.8183 25.5404 55.8175L29.8543 55.7958L29.8474 57.3412L25.5335 57.3629C25.1429 57.3649 24.7869 57.2715 24.4654 57.0827C24.1441 56.889 23.8889 56.6315 23.6999 56.3102C23.5109 55.984 23.4173 55.6256 23.419 55.235L23.4364 51.3532ZM33.9842 49.7327L34.973 49.7277L34.9856 46.9006L36.531 46.8928L36.5184 49.7199L38.8548 49.7081L38.8479 51.2535L36.5115 51.2653L36.4941 55.1544C36.4934 55.3204 36.5562 55.4641 36.6826 55.5856C36.8139 55.7021 36.9699 55.7599 37.1506 55.759L38.8278 55.7505L38.8209 57.2959L37.1217 57.3045C36.7213 57.3065 36.3556 57.2131 36.0244 57.0244C35.6981 56.8307 35.4356 56.5733 35.2368 56.252C35.043 55.9259 34.9469 55.565 34.9487 55.1695L34.9661 51.2731L33.9773 51.2781L33.9842 49.7327ZM42.6627 46.8619L44.0763 46.8547L47.4197 50.9466L50.7998 46.8208L52.2134 46.8137L52.1669 57.2286L50.6216 57.2364L50.6563 49.4509L48.0569 52.5986L46.7752 52.6051L44.1964 49.4834L44.1617 57.269L42.6163 57.2768L42.6627 46.8619ZM56.2696 52.3448C56.2719 51.8419 56.396 51.3848 56.642 50.9734C56.8928 50.562 57.2263 50.2332 57.6424 49.9869C58.0586 49.7358 58.5181 49.609 59.021 49.6065L63.2544 49.5851L63.2205 57.1729L61.6751 57.1807L61.7021 51.1383L59.0141 51.1518C58.687 51.1535 58.4057 51.2721 58.1703 51.5077C57.9349 51.7383 57.8164 52.0197 57.815 52.3517L57.8056 54.4464C57.8041 54.7784 57.9201 55.0635 58.1534 55.3016C58.3867 55.5348 58.6669 55.6505 58.9941 55.6489L60.8031 55.6398L60.7962 57.1851L58.9872 57.1943C58.4842 57.1968 58.0258 57.077 57.6119 56.835C57.1979 56.5881 56.8674 56.2577 56.6202 55.8439C56.3779 55.4301 56.2579 54.9718 56.2602 54.4688L56.2696 52.3448ZM66.8959 49.5668L67.8847 49.5618L67.8973 46.7346L69.4427 46.7269L69.4301 49.554L71.7665 49.5422L71.7596 51.0876L69.4232 51.0994L69.4058 54.9885C69.4051 55.1545 69.4679 55.2982 69.5943 55.4197C69.7256 55.5362 69.8816 55.594 70.0623 55.5931L71.7395 55.5846L71.7326 57.13L70.0334 57.1386C69.633 57.1406 69.2673 57.0472 68.9361 56.8585C68.6098 56.6648 68.3473 56.4074 68.1485 56.0861C67.9547 55.7599 67.8586 55.3991 67.8604 55.0036L67.8778 51.1072L66.889 51.1121L66.8959 49.5668ZM75.3299 52.2634C75.3321 51.7605 75.4611 51.3009 75.7169 50.8845C75.9726 50.4682 76.3134 50.1369 76.7393 49.8907C77.1652 49.6395 77.637 49.5126 78.1546 49.51L82.4245 49.4885L82.4176 51.0339L78.1477 51.0554C77.801 51.0571 77.5026 51.1783 77.2525 51.4188C77.0025 51.6544 76.8767 51.9407 76.8752 52.2776L76.866 54.3357C76.8645 54.6726 76.9853 54.9601 77.2283 55.1981C77.4763 55.4361 77.7761 55.5542 78.1276 55.5524L82.3976 55.5309L82.3907 57.0763L78.1207 57.0978C77.6031 57.1004 77.1325 56.9783 76.7088 56.7314C76.2851 56.4845 75.9473 56.1542 75.6952 55.7405C75.4432 55.3218 75.3183 54.861 75.3205 54.3581L75.3299 52.2634ZM86.379 46.6415L87.9244 46.6337L87.9118 49.4608L90.2994 49.4488C90.8268 49.4461 91.3047 49.5682 91.7333 49.8151C92.1668 50.057 92.5095 50.3849 92.7616 50.7986C93.0185 51.2075 93.1459 51.6634 93.1436 52.1663L93.122 57.0222L91.5766 57.03L91.5982 52.196C91.5996 51.8738 91.469 51.5937 91.2064 51.3558C90.9487 51.1129 90.6441 50.9924 90.2925 50.9942L87.9049 51.0062L87.8779 57.0486L86.3325 57.0564L86.379 46.6415Z" fill="#D9D9D9"/>
<path d="M11.2909 48.2724L7.0443 45.6734L7.03196 45.6934L7.0198 45.7135L11.2909 48.2724ZM12.2324 47.3595L14.7054 51.6814L14.7139 51.6765L14.7225 51.6715L12.2324 47.3595ZM18.9282 46.9815L23.9281 46.9563L23.9504 41.9564L18.9505 41.9816L18.9282 46.9815ZM18.9213 48.5196L18.899 53.5195L23.899 53.4943L23.9213 48.4944L18.9213 48.5196ZM18.1388 51.5557L15.5868 55.8794L15.6069 55.8912L15.6271 55.9027L18.1388 51.5557ZM19.0648 52.4665L14.7565 55.0446L14.7754 55.0766L14.7949 55.1084L19.0648 52.4665ZM19.0484 56.1432L14.787 53.5685L14.7822 53.5764L14.7774 53.5843L19.0484 56.1432ZM18.1142 57.0634L20.5872 61.3853L20.6075 61.3736L20.6277 61.3617L18.1142 57.0634ZM10.9131 57.4366L5.91314 57.4618L5.89084 62.4618L10.8908 62.4366L10.9131 57.4366ZM10.92 55.8912L10.9423 50.8913L5.94233 50.9165L5.92003 55.9164L10.92 55.8912ZM17.5496 55.5722L20.9794 59.1775L20.9817 59.1754L17.5496 55.5722ZM17.5608 53.0453L14.0533 56.6418L14.0748 56.6627L14.0965 56.6834L17.5608 53.0453ZM12.2097 52.4498L9.69803 56.7968L9.72989 56.815L9.76201 56.8328L12.2097 52.4498ZM11.2762 51.5536L6.99688 54.1801L7.00904 54.2001L7.02139 54.22L11.2762 51.5536ZM15.9409 49.516C15.9391 49.9205 15.8245 50.3975 15.5619 50.8313L7.0198 45.7135C6.29486 46.9114 5.94697 48.2343 5.94103 49.5664L15.9409 49.516ZM15.5374 50.8714C15.3302 51.2068 15.0321 51.4924 14.7054 51.6814L9.7594 43.0376C8.64943 43.6797 7.72366 44.574 7.0443 45.6734L15.5374 50.8714ZM14.7225 51.6715C14.3266 51.9026 13.8901 52.0067 13.5153 52.0086L13.5599 42.0087C12.2379 42.0154 10.9312 42.3534 9.74232 43.0475L14.7225 51.6715ZM13.5153 52.0086L18.9059 51.9815L18.9505 41.9816L13.5599 42.0087L13.5153 52.0086ZM13.9282 47.0067L13.9214 48.5448L23.9213 48.4944L23.9281 46.9563L13.9282 47.0067ZM18.9436 43.5196L13.5531 43.5468L13.5085 53.5467L18.899 53.5195L18.9436 43.5196ZM13.5531 43.5468C11.9473 43.5549 10.4518 44.1851 9.32032 45.2905L16.2737 52.411C15.955 52.7223 15.5337 53.0239 15.011 53.2405C14.4872 53.4575 13.9692 53.5444 13.5085 53.5467L13.5531 43.5468ZM9.32032 45.2905C8.15938 46.4247 7.49357 47.9544 7.48622 49.6026L17.4861 49.5522C17.484 50.0282 17.3922 50.5676 17.159 51.1128C16.9262 51.6569 16.603 52.0893 16.2737 52.411L9.32032 45.2905ZM7.48622 49.6026L7.48302 50.3203L17.4829 50.2699L17.4861 49.5522L7.48622 49.6026ZM7.48302 50.3203C7.4751 52.0976 8.2495 53.6304 9.41654 54.6846L16.1587 47.2355C16.4895 47.5344 16.8443 47.9631 17.1073 48.5373C17.374 49.1194 17.4854 49.7184 17.4829 50.2699L7.48302 50.3203ZM9.41654 54.6846C10.5604 55.7179 12.0064 56.2422 13.4965 56.2347L13.5411 46.2348C13.955 46.2327 14.4299 46.3001 14.9205 46.4843C15.413 46.6693 15.8286 46.9374 16.1587 47.2355L9.41654 54.6846ZM13.4965 56.2347L16.8143 56.2179L16.8589 46.218L13.5411 46.2348L13.4965 56.2347ZM16.8143 56.2179C16.4544 56.2198 16.0066 56.1246 15.5868 55.8794L20.6907 47.2319C19.4917 46.5317 18.1759 46.2114 16.8589 46.218L16.8143 56.2179ZM15.6271 55.9027C15.2775 55.7029 14.9661 55.3986 14.7565 55.0446L23.3732 49.8884C22.708 48.7652 21.7793 47.8537 20.6504 47.2086L15.6271 55.9027ZM14.7949 55.1084C14.5277 54.6723 14.4089 54.1822 14.4108 53.757L24.4107 53.7066C24.4167 52.3536 24.0674 51.02 23.3348 49.8246L14.7949 55.1084ZM14.4108 53.757L14.4057 54.8922L24.4056 54.8418L24.4107 53.7066L14.4108 53.757ZM14.4057 54.8922C14.4076 54.4671 14.5304 53.989 14.787 53.5685L23.3099 58.7179C24.0387 57.5235 24.3996 56.1947 24.4056 54.8418L14.4057 54.8922ZM14.7774 53.5843C14.9878 53.2365 15.2863 52.951 15.6007 52.7652L20.6277 61.3617C21.7254 60.7129 22.6467 59.8139 23.3195 58.7021L14.7774 53.5843ZM15.6412 52.7415C16.0572 52.5008 16.4913 52.4087 16.8313 52.4069L16.7867 62.4068C18.0837 62.4003 19.388 62.0792 20.5872 61.3853L15.6412 52.7415ZM16.8313 52.4069L10.9354 52.4367L10.8908 62.4366L16.7867 62.4068L16.8313 52.4069ZM15.913 57.4114L15.9199 55.866L5.92003 55.9164L5.91314 57.4618L15.913 57.4114ZM10.8977 60.8912L16.7936 60.8614L16.8382 50.8615L10.9423 50.8913L10.8977 60.8912ZM16.7936 60.8614C18.3039 60.8538 19.8018 60.2989 20.9794 59.1775L14.1197 51.9668C14.4658 51.6372 14.9029 51.3427 15.4194 51.139C15.9323 50.9368 16.4225 50.8636 16.8382 50.8615L16.7936 60.8614ZM20.9817 59.1754C22.1427 58.0685 22.8527 56.5382 22.8603 54.8423L12.8604 54.8927C12.8626 54.3878 12.9636 53.8265 13.2099 53.2678C13.4546 52.7129 13.7891 52.282 14.1175 51.9689L20.9817 59.1754ZM22.8603 54.8423L22.8653 53.7217L12.8654 53.7721L12.8604 54.8927L22.8603 54.8423ZM22.8653 53.7217C22.8728 52.0258 22.1764 50.5025 21.0252 49.4073L14.0965 56.6834C13.7709 56.3736 13.4402 55.946 13.2005 55.3936C12.959 54.8373 12.8631 54.277 12.8654 53.7721L22.8653 53.7217ZM21.0684 49.4489C19.9086 48.3183 18.4012 47.7483 16.852 47.7561L16.8074 57.756C16.3764 57.7582 15.8727 57.6854 15.3509 57.479C14.8264 57.2715 14.3912 56.9712 14.0533 56.6418L21.0684 49.4489ZM16.852 47.7561L13.5342 47.7728L13.4896 57.7727L16.8074 57.756L16.852 47.7561ZM13.5342 47.7728C13.869 47.7711 14.2758 47.8562 14.6574 48.0668L9.76201 56.8328C10.9327 57.4788 12.2076 57.7792 13.4896 57.7727L13.5342 47.7728ZM14.7213 48.1027C15.031 48.2797 15.3237 48.5532 15.531 48.8872L7.02139 54.22C7.69415 55.3036 8.60912 56.1746 9.69803 56.7968L14.7213 48.1027ZM15.5556 48.9271C15.8183 49.3594 15.9394 49.8499 15.9375 50.2851L5.9376 50.3355C5.93161 51.6788 6.27849 52.9982 6.99688 54.1801L15.5556 48.9271ZM15.9375 50.2851L15.9409 49.516L5.94103 49.5664L5.9376 50.3355L15.9375 50.2851ZM23.9174 50.2448L27.3522 53.8454L27.3667 53.8316L27.3812 53.8176L23.9174 50.2448ZM29.3233 50.0564L26.6945 54.3344L26.7315 54.357L26.769 54.3789L29.3233 50.0564ZM30.1107 50.8508L25.7739 53.3802L25.7953 53.4173L25.8174 53.4541L30.1107 50.8508ZM30.0999 53.2678L25.8296 50.7076L25.8239 50.717L25.8183 50.7264L30.0999 53.2678ZM29.3054 54.0628L31.8493 58.3429L31.8587 58.3373L31.868 58.3316L29.3054 54.0628ZM25.8471 54.3731L20.8472 54.3984L20.8249 59.3983L25.8248 59.3731L25.8471 54.3731ZM25.854 52.8351L25.8763 47.8351L20.8763 47.8603L20.854 52.8603L25.854 52.8351ZM28.6746 52.6304L25.1549 49.1128L25.1201 49.1476L25.0859 49.1831L28.6746 52.6304ZM28.6797 51.4952L25.0601 54.9789L25.0939 55.014L25.1284 55.0485L28.6797 51.4952ZM24.9818 51.3234L25.0041 46.3235L20.0042 46.3487L19.9819 51.3486L24.9818 51.3234ZM29.8543 55.7958L34.8542 55.7706L34.8765 50.7706L29.8766 50.7958L29.8543 55.7958ZM29.8474 57.3412L29.8251 62.3411L34.825 62.3159L34.8473 57.316L29.8474 57.3412ZM24.4654 57.0827L21.8549 61.3717L21.8787 61.386L21.9026 61.4001L24.4654 57.0827ZM23.6999 56.3102L19.3675 58.8473L19.3757 58.8614L19.384 58.8755L23.6999 56.3102ZM28.4363 51.328C28.4345 51.7337 28.355 52.2126 28.1418 52.7039C27.929 53.1943 27.6363 53.5742 27.3522 53.8454L20.4825 46.6442C19.1808 47.8871 18.4445 49.5624 18.4364 51.3784L28.4363 51.328ZM27.3812 53.8176C27.1109 54.0797 26.7472 54.338 26.2942 54.5228C25.8417 54.7075 25.4063 54.7757 25.0397 54.7776L25.0843 44.7777C23.3486 44.7864 21.7146 45.4487 20.4535 46.6721L27.3812 53.8176ZM25.0397 54.7776L28.2037 54.7616L28.2483 44.7617L25.0843 44.7777L25.0397 54.7776ZM28.2037 54.7616C27.7424 54.764 27.1968 54.6401 26.6945 54.3344L31.9521 45.7785C30.7973 45.0757 29.5201 44.7553 28.2483 44.7617L28.2037 54.7616ZM26.769 54.3789C26.3516 54.1348 26.0036 53.7784 25.7739 53.3802L34.4475 48.3214C33.8302 47.2513 32.9573 46.3654 31.8776 45.734L26.769 54.3789ZM25.8174 53.4541C25.5281 52.9723 25.4041 52.4419 25.4061 51.9804L35.406 51.93C35.4117 50.658 35.0907 49.3913 34.4041 48.2475L25.8174 53.4541ZM25.4061 51.9804L25.4052 52.1928L35.4051 52.1424L35.406 51.93L25.4061 51.9804ZM25.4052 52.1928C25.4073 51.7145 25.542 51.1825 25.8296 50.7076L34.3703 55.8279C35.0612 54.6869 35.3994 53.4215 35.4051 52.1424L25.4052 52.1928ZM25.8183 50.7264C26.0531 50.3348 26.3839 50.0116 26.7428 49.7939L31.868 58.3316C32.8928 57.7102 33.7532 56.857 34.3816 55.8091L25.8183 50.7264ZM26.7615 49.7826C27.2603 49.4831 27.7903 49.3635 28.2278 49.3613L28.1832 59.3612C29.4312 59.3549 30.6944 59.0363 31.8493 58.3429L26.7615 49.7826ZM28.2278 49.3613L25.8694 49.3732L25.8248 59.3731L28.1832 59.3612L28.2278 49.3613ZM30.847 54.3479L30.8539 52.8099L20.854 52.8603L20.8472 54.3984L30.847 54.3479ZM25.8317 57.835L28.2047 57.8231L28.2493 47.8232L25.8763 47.8351L25.8317 57.835ZM28.2047 57.8231C29.7435 57.8153 31.1957 57.1883 32.2633 56.0778L25.0859 49.1831C25.4513 48.803 25.933 48.4419 26.5308 48.1846C27.1288 47.9272 27.7217 47.8258 28.2493 47.8232L28.2047 57.8231ZM32.1943 56.1481C33.2703 55.0715 33.8604 53.6402 33.867 52.1428L23.8672 52.1933C23.8694 51.6857 23.9639 51.1144 24.2051 50.535C24.4465 49.955 24.7881 49.4798 25.1549 49.1128L32.1943 56.1481ZM33.867 52.1428L33.8679 51.9378L23.8681 51.9882L23.8672 52.1933L33.867 52.1428ZM33.8679 51.9378C33.8745 50.4757 33.3251 49.0354 32.2309 47.9419L25.1284 55.0485C24.7521 54.6724 24.414 54.191 24.1809 53.6121C23.9491 53.0365 23.8659 52.4757 23.8681 51.9882L33.8679 51.9378ZM32.2992 48.0115C31.2415 46.9117 29.7949 46.2993 28.256 46.3071L28.2115 56.307C27.6839 56.3096 27.0918 56.2142 26.4961 55.9628C25.9005 55.7115 25.4221 55.3553 25.0601 54.9789L32.2992 48.0115ZM28.256 46.3071L25.0041 46.3235L24.9595 56.3234L28.2115 56.307L28.256 46.3071ZM19.9819 51.3486L19.9645 55.2451L29.9644 55.1946L29.9818 51.2982L19.9819 51.3486ZM19.9645 55.2451C19.9582 56.6676 20.4837 58.0553 21.5057 59.1215L28.7563 52.1661C29.1161 52.5414 29.4386 53.0163 29.6616 53.5838C29.8837 54.1492 29.9666 54.7035 29.9644 55.1946L19.9645 55.2451ZM21.5057 59.1215C22.5484 60.2093 23.9827 60.8252 25.5181 60.8175L25.5627 50.8176C26.1023 50.8148 26.7041 50.9131 27.3073 51.1691C27.9096 51.4247 28.392 51.786 28.7563 52.1661L21.5057 59.1215ZM25.5181 60.8175L29.832 60.7957L29.8766 50.7958L25.5627 50.8176L25.5181 60.8175ZM24.8544 55.821L24.8475 57.3664L34.8473 57.316L34.8542 55.7706L24.8544 55.821ZM29.8697 52.3412L25.5558 52.363L25.5112 62.3629L29.8251 62.3411L29.8697 52.3412ZM25.5558 52.363C26.0193 52.3606 26.5471 52.4826 27.0283 52.7652L21.9026 61.4001C23.0266 62.0603 24.2665 62.3691 25.5112 62.3629L25.5558 52.363ZM27.076 52.7937C27.4529 53.0208 27.7856 53.3535 28.0158 53.7449L19.384 58.8755C19.9921 59.9095 20.8352 60.7572 21.8549 61.3717L27.076 52.7937ZM28.0323 53.7731C28.299 54.2334 28.421 54.7462 28.419 55.2098L18.4191 55.2602C18.4136 56.505 18.7229 57.7346 19.3675 58.8473L28.0323 53.7731ZM28.419 55.2098L28.4363 51.328L18.4364 51.3784L18.4191 55.2602L28.419 55.2098ZM33.9842 49.7327L34.0065 44.7327L29.0066 44.7579L28.9843 49.7579L33.9842 49.7327ZM34.973 49.7277L34.9507 54.7276L39.9506 54.7024L39.9729 49.7025L34.973 49.7277ZM34.9856 46.9006L35.0079 41.9006L30.0079 41.9258L29.9857 46.9258L34.9856 46.9006ZM36.531 46.8928L41.5309 46.8676L41.5532 41.8676L36.5533 41.8928L36.531 46.8928ZM36.5184 49.7199L31.5184 49.7451L31.4961 54.745L36.4961 54.7198L36.5184 49.7199ZM38.8548 49.7081L43.8547 49.6829L43.877 44.683L38.8771 44.7082L38.8548 49.7081ZM38.8479 51.2535L38.8256 56.2535L43.8255 56.2283L43.8478 51.2283L38.8479 51.2535ZM36.5115 51.2653L36.5338 46.2653L31.5338 46.2905L31.5115 51.2905L36.5115 51.2653ZM36.6826 55.5856L33.2011 59.2072L33.2713 59.2747L33.3442 59.3393L36.6826 55.5856ZM38.8278 55.7505L43.8278 55.7253L43.8501 50.7254L38.8501 50.7506L38.8278 55.7505ZM38.8209 57.2959L38.7986 62.2959L43.7986 62.2707L43.8209 57.2707L38.8209 57.2959ZM36.0244 57.0244L33.4422 61.3304L33.4797 61.3526L33.5175 61.3742L36.0244 57.0244ZM35.2368 56.252L30.9324 58.8367L30.9548 58.8745L30.9779 58.9118L35.2368 56.252ZM34.9661 51.2731L39.966 51.2479L39.9883 46.2479L34.9884 46.2731L34.9661 51.2731ZM33.9773 51.2781L28.9774 51.3033L28.9551 56.3032L33.955 56.278L33.9773 51.2781ZM33.9619 54.7326L34.9507 54.7276L34.9953 44.7277L34.0065 44.7327L33.9619 54.7326ZM39.9729 49.7025L39.9855 46.8754L29.9857 46.9258L29.973 49.7529L39.9729 49.7025ZM34.9633 51.9005L36.5087 51.8927L36.5533 41.8928L35.0079 41.9006L34.9633 51.9005ZM31.531 46.918L31.5184 49.7451L41.5183 49.6947L41.5309 46.8676L31.531 46.918ZM36.4961 54.7198L38.8325 54.7081L38.8771 44.7082L36.5407 44.7199L36.4961 54.7198ZM33.8548 49.7333L33.8479 51.2787L43.8478 51.2283L43.8547 49.6829L33.8548 49.7333ZM38.8702 46.2536L36.5338 46.2653L36.4892 56.2652L38.8256 56.2535L38.8702 46.2536ZM31.5115 51.2905L31.4942 55.1796L41.4941 55.1292L41.5114 51.2401L31.5115 51.2905ZM31.4942 55.1796C31.487 56.7954 32.1648 58.2117 33.2011 59.2072L40.1642 51.964C40.5134 52.2994 40.867 52.7572 41.1251 53.3474C41.3858 53.9438 41.4966 54.5566 41.4941 55.1292L31.4942 55.1796ZM33.3442 59.3393C34.4111 60.2861 35.7557 60.7659 37.1283 60.7589L37.1729 50.759C37.6324 50.7567 38.1475 50.8305 38.6746 51.0259C39.2036 51.2219 39.6554 51.5073 40.0211 51.8318L33.3442 59.3393ZM37.1283 60.7589L38.8055 60.7505L38.8501 50.7506L37.1729 50.759L37.1283 60.7589ZM33.8279 55.7757L33.821 57.3211L43.8209 57.2707L43.8278 55.7253L33.8279 55.7757ZM38.8432 52.296L37.144 52.3045L37.0994 62.3044L38.7986 62.2959L38.8432 52.296ZM37.144 52.3045C37.5746 52.3024 38.0719 52.4128 38.5313 52.6746L33.5175 61.3742C34.6393 62.0135 35.8681 62.3107 37.0994 62.3044L37.144 52.3045ZM38.6065 52.7184C38.9608 52.9287 39.2744 53.2345 39.4958 53.5922L30.9779 58.9118C31.5968 59.9121 32.4354 60.7328 33.4422 61.3304L38.6065 52.7184ZM39.5413 53.6674C39.8246 54.1439 39.9507 54.6733 39.9486 55.1443L29.9488 55.1947C29.9431 56.4568 30.2614 57.7078 30.9324 58.8367L39.5413 53.6674ZM39.9486 55.1443L39.966 51.2479L29.9662 51.2983L29.9488 55.1947L39.9486 55.1443ZM34.9884 46.2731L33.9996 46.2781L33.955 56.278L34.9438 56.273L34.9884 46.2731ZM38.9773 51.2529L38.9842 49.7075L28.9843 49.7579L28.9774 51.3033L38.9773 51.2529ZM42.6627 46.8619L42.685 41.8619L37.6851 41.8871L37.6628 46.8871L42.6627 46.8619ZM44.0763 46.8547L47.9601 43.6691L46.468 41.8428L44.0986 41.8548L44.0763 46.8547ZM47.4197 50.9466L43.5359 54.1323L47.3845 58.8425L51.2754 54.0933L47.4197 50.9466ZM50.7998 46.8208L50.8221 41.8209L48.4528 41.8328L46.9442 43.6742L50.7998 46.8208ZM52.2134 46.8137L57.2133 46.7885L57.2356 41.7886L52.2357 41.8138L52.2134 46.8137ZM52.1669 57.2286L52.1446 62.2286L57.1446 62.2034L57.1669 57.2034L52.1669 57.2286ZM50.6216 57.2364L45.6216 57.2616L45.5993 62.2616L50.5993 62.2364L50.6216 57.2364ZM50.6563 49.4509L55.6562 49.4257L55.7183 35.5053L46.8132 46.289L50.6563 49.4509ZM48.0569 52.5986L48.0346 57.5986L50.3919 57.5867L51.9 55.7605L48.0569 52.5986ZM46.7752 52.6051L42.9081 55.8112L44.3998 57.6169L46.7529 57.6051L46.7752 52.6051ZM44.1964 49.4834L48.0634 46.2773L39.2584 35.6186L39.1965 49.5086L44.1964 49.4834ZM44.1617 57.269L44.1394 62.269L49.1393 62.2437L49.1616 57.2438L44.1617 57.269ZM42.6163 57.2768L37.6164 57.302L37.5941 62.302L42.594 62.2767L42.6163 57.2768ZM42.6404 51.8618L44.054 51.8547L44.0986 41.8548L42.685 41.8619L42.6404 51.8618ZM40.1924 50.0404L43.5359 54.1323L51.3036 47.761L47.9601 43.6691L40.1924 50.0404ZM51.2754 54.0933L54.6555 49.9675L46.9442 43.6742L43.5641 47.8L51.2754 54.0933ZM50.7775 51.8208L52.1911 51.8137L52.2357 41.8138L50.8221 41.8209L50.7775 51.8208ZM47.2135 46.8389L47.167 57.2539L57.1669 57.2034L57.2133 46.7885L47.2135 46.8389ZM52.1892 52.2287L50.6439 52.2365L50.5993 62.2364L52.1446 62.2286L52.1892 52.2287ZM55.6215 57.2112L55.6562 49.4257L45.6563 49.4761L45.6216 57.2616L55.6215 57.2112ZM46.8132 46.289L44.2138 49.4367L51.9 55.7605L54.4993 52.6128L46.8132 46.289ZM48.0792 47.5987L46.7975 47.6052L46.7529 57.6051L48.0346 57.5986L48.0792 47.5987ZM50.6422 49.399L48.0634 46.2773L40.3294 52.6896L42.9081 55.8112L50.6422 49.399ZM39.1965 49.5086L39.1617 57.2942L49.1616 57.2438L49.1963 49.4582L39.1965 49.5086ZM44.184 52.2691L42.6386 52.2768L42.594 62.2767L44.1394 62.269L44.184 52.2691ZM47.6162 57.2516L47.6627 46.8367L37.6628 46.8871L37.6164 57.302L47.6162 57.2516ZM56.642 50.9734L52.3796 48.4001L52.3682 48.4188L52.3569 48.4376L56.642 50.9734ZM57.6424 49.9869L60.1583 54.2838L60.177 54.2727L60.1957 54.2614L57.6424 49.9869ZM63.2544 49.5851L68.2543 49.5599L68.2766 44.56L63.2767 44.5852L63.2544 49.5851ZM63.2205 57.1729L63.1982 62.1729L68.1982 62.1477L68.2205 57.1477L63.2205 57.1729ZM61.6751 57.1807L56.6752 57.2059L56.6529 62.2059L61.6528 62.1807L61.6751 57.1807ZM61.7021 51.1383L66.702 51.1131L66.7243 46.1131L61.7244 46.1383L61.7021 51.1383ZM58.1703 51.5077L61.6524 55.0625L61.6713 55.044L61.69 55.0253L58.1703 51.5077ZM58.1534 55.3016L54.566 58.8184L54.584 58.8367L54.6021 58.8549L58.1534 55.3016ZM60.8031 55.6398L65.8031 55.6145L65.8254 50.6146L60.8254 50.6398L60.8031 55.6398ZM60.7962 57.1851L60.7739 62.1851L65.7739 62.1599L65.7962 57.1599L60.7962 57.1851ZM57.6119 56.835L55.0203 61.1354L55.0389 61.1465L55.0576 61.1574L57.6119 56.835ZM56.6202 55.8439L52.2993 58.4007L52.3102 58.4194L52.3213 58.438L56.6202 55.8439ZM61.2696 52.3196C61.268 52.6666 61.1702 53.1023 60.927 53.5091L52.3569 48.4376C51.6218 49.6672 51.2757 51.0172 51.2697 52.37L61.2696 52.3196ZM60.9043 53.5467C60.7214 53.8466 60.4538 54.1089 60.1583 54.2838L55.1266 45.6901C53.9988 46.3574 53.0642 47.2774 52.3796 48.4001L60.9043 53.5467ZM60.1957 54.2614C60.0155 54.3702 59.8092 54.461 59.5867 54.5224C59.3654 54.5835 59.164 54.6056 58.9987 54.6064L59.0433 44.6065C57.6713 44.6134 56.3156 44.9723 55.0891 45.7125L60.1957 54.2614ZM58.9987 54.6064L63.2321 54.5851L63.2767 44.5852L59.0433 44.6065L58.9987 54.6064ZM58.2544 49.6103L58.2206 57.1981L68.2205 57.1477L68.2543 49.5599L58.2544 49.6103ZM63.2428 52.173L61.6974 52.1808L61.6528 62.1807L63.1982 62.1729L63.2428 52.173ZM66.6751 57.1555L66.702 51.1131L56.7021 51.1635L56.6752 57.2059L66.6751 57.1555ZM61.7244 46.1383L59.0364 46.1519L58.9918 56.1518L61.6798 56.1382L61.7244 46.1383ZM59.0364 46.1519C57.3637 46.1603 55.8139 46.826 54.6506 47.99L61.69 55.0253C61.3863 55.3292 60.9773 55.6297 60.4631 55.8465C59.9476 56.0638 59.4391 56.1495 58.9918 56.1518L59.0364 46.1519ZM54.6881 47.9528C53.4748 49.1417 52.8224 50.7191 52.815 52.3769L62.8149 52.3265C62.813 52.7609 62.7313 53.2697 62.5105 53.7943C62.2891 54.3202 61.9774 54.7441 61.6524 55.0625L54.6881 47.9528ZM52.815 52.3769L52.8057 54.4716L62.8056 54.4212L62.8149 52.3265L52.815 52.3769ZM52.8057 54.4716C52.7983 56.1246 53.4303 57.6595 54.566 58.8184L61.7407 51.7847C62.035 52.085 62.3217 52.4864 62.5257 52.9881C62.73 53.4907 62.8075 53.9859 62.8056 54.4212L52.8057 54.4716ZM54.6021 58.8549C55.7551 60.0072 57.2991 60.6573 58.9718 60.6488L59.0164 50.6489C59.4636 50.6467 59.9714 50.7272 60.485 50.9394C60.9973 51.1511 61.4036 51.4474 61.7046 51.7482L54.6021 58.8549ZM58.9718 60.6488L60.7808 60.6397L60.8254 50.6398L59.0164 50.6489L58.9718 60.6488ZM55.8032 55.665L55.7963 57.2104L65.7962 57.1599L65.8031 55.6145L55.8032 55.665ZM60.8185 52.1852L59.0095 52.1943L58.9649 62.1942L60.7739 62.1851L60.8185 52.1852ZM59.0095 52.1943C59.3566 52.1926 59.779 52.2862 60.1662 52.5126L55.0576 61.1574C56.2727 61.8679 57.6119 62.201 58.9649 62.1942L59.0095 52.1943ZM60.2034 52.5346C60.4914 52.7064 60.7472 52.962 60.9191 53.2499L52.3213 58.438C52.9876 59.5534 53.9045 60.4698 55.0203 61.1354L60.2034 52.5346ZM60.9412 53.2871C61.1678 53.6742 61.2617 54.0965 61.2601 54.4436L51.2602 54.4941C51.2542 55.8471 51.5881 57.1861 52.2993 58.4007L60.9412 53.2871ZM61.2601 54.4436L61.2696 52.3196L51.2697 52.37L51.2602 54.4941L61.2601 54.4436ZM66.8959 49.5668L66.9182 44.5668L61.9183 44.592L61.896 49.592L66.8959 49.5668ZM67.8847 49.5618L67.8624 54.5617L72.8623 54.5365L72.8846 49.5366L67.8847 49.5618ZM67.8973 46.7346L67.9196 41.7347L62.9196 41.7599L62.8973 46.7599L67.8973 46.7346ZM69.4427 46.7269L74.4426 46.7017L74.4649 41.7017L69.465 41.7269L69.4427 46.7269ZM69.4301 49.554L64.4301 49.5792L64.4078 54.5791L69.4078 54.5539L69.4301 49.554ZM71.7665 49.5422L76.7664 49.517L76.7887 44.517L71.7888 44.5423L71.7665 49.5422ZM71.7596 51.0876L71.7373 56.0875L76.7372 56.0623L76.7595 51.0624L71.7596 51.0876ZM69.4232 51.0994L69.4455 46.0994L64.4455 46.1246L64.4232 51.1246L69.4232 51.0994ZM69.5943 55.4197L66.1128 59.0413L66.183 59.1088L66.2559 59.1734L69.5943 55.4197ZM71.7395 55.5846L76.7394 55.5594L76.7617 50.5595L71.7618 50.5847L71.7395 55.5846ZM71.7326 57.13L71.7103 62.13L76.7103 62.1048L76.7326 57.1048L71.7326 57.13ZM68.9361 56.8585L66.3539 61.1645L66.3914 61.1867L66.4292 61.2083L68.9361 56.8585ZM68.1485 56.0861L63.844 58.6708L63.8665 58.7085L63.8896 58.7459L68.1485 56.0861ZM67.8778 51.1072L72.8777 51.082L72.9 46.082L67.9001 46.1072L67.8778 51.1072ZM66.889 51.1121L61.8891 51.1374L61.8668 56.1373L66.8667 56.1121L66.889 51.1121ZM66.8736 54.5667L67.8624 54.5617L67.907 44.5618L66.9182 44.5668L66.8736 54.5667ZM72.8846 49.5366L72.8972 46.7094L62.8973 46.7599L62.8847 49.587L72.8846 49.5366ZM67.875 51.7346L69.4204 51.7268L69.465 41.7269L67.9196 41.7347L67.875 51.7346ZM64.4427 46.7521L64.4301 49.5792L74.43 49.5288L74.4426 46.7017L64.4427 46.7521ZM69.4078 54.5539L71.7442 54.5422L71.7888 44.5423L69.4524 44.554L69.4078 54.5539ZM66.7665 49.5674L66.7596 51.1128L76.7595 51.0624L76.7664 49.517L66.7665 49.5674ZM71.7819 46.0876L69.4455 46.0994L69.4009 56.0993L71.7373 56.0875L71.7819 46.0876ZM64.4232 51.1246L64.4059 55.0137L74.4058 54.9633L74.4231 51.0742L64.4232 51.1246ZM64.4059 55.0137C64.3987 56.6295 65.0765 58.0458 66.1128 59.0413L73.0759 51.7981C73.4251 52.1335 73.7787 52.5913 74.0368 53.1815C74.2975 53.7779 74.4083 54.3907 74.4058 54.9633L64.4059 55.0137ZM66.2559 59.1734C67.3228 60.1202 68.6674 60.5999 70.04 60.593L70.0846 50.5931C70.5441 50.5908 71.0592 50.6646 71.5863 50.86C72.1152 51.056 72.5671 51.3414 72.9328 51.6659L66.2559 59.1734ZM70.04 60.593L71.7172 60.5846L71.7618 50.5847L70.0846 50.5931L70.04 60.593ZM66.7396 55.6098L66.7327 57.1552L76.7326 57.1048L76.7394 55.5594L66.7396 55.6098ZM71.7549 52.1301L70.0557 52.1386L70.0111 62.1385L71.7103 62.13L71.7549 52.1301ZM70.0557 52.1386C70.4863 52.1365 70.9835 52.2469 71.4429 52.5087L66.4292 61.2083C67.551 61.8476 68.7798 62.1447 70.0111 62.1385L70.0557 52.1386ZM71.5182 52.5525C71.8725 52.7628 72.1861 53.0686 72.4075 53.4263L63.8896 58.7459C64.5085 59.7462 65.3471 60.5669 66.3539 61.1645L71.5182 52.5525ZM72.453 53.5014C72.7363 53.978 72.8624 54.5074 72.8603 54.9784L62.8605 55.0288C62.8548 56.2909 63.1731 57.5419 63.844 58.6708L72.453 53.5014ZM72.8603 54.9784L72.8777 51.082L62.8778 51.1324L62.8605 55.0288L72.8603 54.9784ZM67.9001 46.1072L66.9113 46.1122L66.8667 56.1121L67.8555 56.1071L67.9001 46.1072ZM71.889 51.0869L71.8958 49.5415L61.896 49.592L61.8891 51.1374L71.889 51.0869ZM76.7393 49.8907L79.2114 54.2131L79.2301 54.2023L79.2487 54.1914L76.7393 49.8907ZM82.4245 49.4885L87.4245 49.4633L87.4468 44.4633L82.4468 44.4885L82.4245 49.4885ZM82.4176 51.0339L82.3953 56.0338L87.3953 56.0086L87.4176 51.0087L82.4176 51.0339ZM77.2525 51.4188L80.6631 55.0425L80.6819 55.0247L80.7005 55.0068L77.2525 51.4188ZM77.2283 55.1981L73.7128 58.7867L73.7304 58.804L73.7482 58.821L77.2283 55.1981ZM82.3976 55.5309L87.3975 55.5057L87.4198 50.5057L82.4199 50.5309L82.3976 55.5309ZM82.3907 57.0763L82.3684 62.0762L87.3683 62.051L87.3906 57.0511L82.3907 57.0763ZM75.6952 55.7405L71.4051 58.3491L71.4117 58.3602L71.4185 58.3712L75.6952 55.7405ZM80.3298 52.2382C80.329 52.4119 80.3055 52.6215 80.2414 52.8501C80.1769 53.0799 80.0821 53.2904 79.9703 53.4723L71.4634 48.2968C70.7068 49.5284 70.3361 50.8974 70.3299 52.2886L80.3298 52.2382ZM79.9703 53.4723C79.7824 53.7782 79.5085 54.0413 79.2114 54.2131L74.2673 45.5682C73.1184 46.2326 72.1629 47.1582 71.4634 48.2968L79.9703 53.4723ZM79.2487 54.1914C79.0732 54.2948 78.8764 54.3788 78.6684 54.4347C78.4619 54.4902 78.278 54.5092 78.1323 54.5099L78.1769 44.51C76.8177 44.5169 75.4647 44.8619 74.23 45.59L79.2487 54.1914ZM78.1323 54.5099L82.4022 54.4884L82.4468 44.4885L78.1769 44.51L78.1323 54.5099ZM77.4246 49.5137L77.4177 51.0591L87.4176 51.0087L87.4245 49.4633L77.4246 49.5137ZM82.4399 46.0339L78.17 46.0554L78.1254 56.0553L82.3953 56.0338L82.4399 46.0339ZM78.17 46.0554C76.5375 46.0637 74.9939 46.6869 73.8045 47.8308L80.7005 55.0068C80.3968 55.2989 79.9974 55.5786 79.5067 55.7779C79.0163 55.9769 78.539 56.0533 78.1254 56.0553L78.17 46.0554ZM73.842 47.7951C72.6009 48.9645 71.883 50.564 71.8752 52.3028L81.8751 52.2524C81.873 52.715 81.7817 53.2466 81.5451 53.785C81.3093 54.3217 80.9843 54.7398 80.6631 55.0425L73.842 47.7951ZM71.8752 52.3028L71.8661 54.3609L81.8659 54.3105L81.8751 52.2524L71.8752 52.3028ZM71.8661 54.3609C71.8585 56.0633 72.5301 57.6285 73.7128 58.7867L80.7439 51.6094C81.0479 51.9072 81.3508 52.3134 81.5679 52.83C81.7856 53.3482 81.8679 53.8607 81.8659 54.3105L71.8661 54.3609ZM73.7482 58.821C74.9419 59.9668 76.4883 60.5605 78.1053 60.5524L78.1499 50.5525C78.5521 50.5504 79.0228 50.6188 79.5103 50.8109C79.9993 51.0036 80.4008 51.2798 80.7085 51.5751L73.7482 58.821ZM78.1053 60.5524L82.3753 60.5308L82.4199 50.5309L78.1499 50.5525L78.1053 60.5524ZM77.3976 55.5561L77.3907 57.1015L87.3906 57.0511L87.3975 55.5057L77.3976 55.5561ZM82.413 52.0763L78.143 52.0979L78.0984 62.0978L82.3684 62.0762L82.413 52.0763ZM78.143 52.0979C78.2888 52.0971 78.4725 52.1142 78.6785 52.1677C78.886 52.2216 79.0821 52.3035 79.2566 52.4052L74.161 61.0576C75.3893 61.7733 76.7393 62.1046 78.0984 62.0978L78.143 52.0979ZM79.2566 52.4052C79.5325 52.566 79.7921 52.8145 79.972 53.1097L71.4185 58.3712C72.1024 59.494 73.0378 60.4031 74.161 61.0576L79.2566 52.4052ZM79.9854 53.1318C80.0894 53.3046 80.1787 53.5069 80.2392 53.7302C80.2996 53.9528 80.3212 54.159 80.3205 54.3329L70.3206 54.3833C70.3144 55.7744 70.6725 57.1323 71.4051 58.3491L79.9854 53.1318ZM80.3205 54.3329L80.3298 52.2382L70.3299 52.2886L70.3206 54.3833L80.3205 54.3329ZM86.379 46.6415L86.4013 41.6415L81.4013 41.6667L81.379 46.6667L86.379 46.6415ZM87.9244 46.6337L92.9243 46.6085L92.9466 41.6085L87.9467 41.6337L87.9244 46.6337ZM87.9118 49.4608L82.9118 49.486L82.8895 54.486L87.8895 54.4608L87.9118 49.4608ZM91.7333 49.8151L89.2069 54.1537L89.2358 54.1703L89.2649 54.1866L91.7333 49.8151ZM92.7616 50.7986L88.4848 53.4294L88.5028 53.4588L88.5211 53.488L92.7616 50.7986ZM93.122 57.0222L93.0997 62.0221L98.0996 61.9969L98.1219 56.997L93.122 57.0222ZM91.5766 57.03L86.5767 57.0552L86.5544 62.0551L91.5543 62.0299L91.5766 57.03ZM91.2064 51.3558L87.7591 55.01L87.7942 55.0431L87.83 55.0755L91.2064 51.3558ZM87.9049 51.0062L87.9272 46.0063L82.9272 46.0315L82.9049 51.0314L87.9049 51.0062ZM87.8779 57.0486L87.8556 62.0486L92.8556 62.0234L92.8779 57.0234L87.8779 57.0486ZM86.3325 57.0564L81.3326 57.0816L81.3103 62.0816L86.3102 62.0564L86.3325 57.0564ZM86.3567 51.6414L87.9021 51.6336L87.9467 41.6337L86.4013 41.6415L86.3567 51.6414ZM82.9244 46.6589L82.9118 49.486L92.9117 49.4356L92.9243 46.6085L82.9244 46.6589ZM87.8895 54.4608L90.2771 54.4487L90.3217 44.4488L87.9341 44.4609L87.8895 54.4608ZM90.2771 54.4487C89.9805 54.4502 89.5855 54.3717 89.2069 54.1537L94.2597 45.4765C93.024 44.7647 91.673 44.442 90.3217 44.4488L90.2771 54.4487ZM89.2649 54.1866C88.9743 54.0243 88.6866 53.7606 88.4848 53.4294L97.0383 48.1679C96.3324 47.0091 95.3593 46.0897 94.2017 45.4436L89.2649 54.1866ZM88.5211 53.488C88.4016 53.2979 88.3009 53.0768 88.2333 52.8348C88.166 52.5941 88.1429 52.3735 88.1437 52.1915L98.1436 52.1411C98.1499 50.7306 97.7785 49.3447 97.0021 48.1093L88.5211 53.488ZM88.1437 52.1915L88.1221 57.0474L98.1219 56.997L98.1436 52.1411L88.1437 52.1915ZM93.1443 52.0222L91.5989 52.03L91.5543 62.0299L93.0997 62.0221L93.1443 52.0222ZM96.5765 57.0048L96.5981 52.1708L86.5982 52.2212L86.5767 57.0552L96.5765 57.0048ZM96.5981 52.1708C96.6065 50.2815 95.7641 48.7063 94.5828 47.6361L87.83 55.0755C87.5457 54.8179 87.2168 54.4301 86.966 53.8923C86.7099 53.3429 86.5958 52.7653 86.5982 52.2212L96.5981 52.1708ZM94.6537 47.7015C93.4843 46.5996 91.959 45.9859 90.3148 45.9942L90.2702 55.9941C89.8546 55.9962 89.3843 55.9238 88.907 55.7349C88.4308 55.5465 88.0475 55.2818 87.7591 55.01L94.6537 47.7015ZM90.3148 45.9942L87.9272 46.0063L87.8826 56.0062L90.2702 55.9941L90.3148 45.9942ZM82.9049 51.0314L82.878 57.0738L92.8779 57.0234L92.9048 50.981L82.9049 51.0314ZM87.9002 52.0487L86.3548 52.0565L86.3102 62.0564L87.8556 62.0486L87.9002 52.0487ZM91.3325 57.0312L91.3789 46.6163L81.379 46.6667L81.3326 57.0816L91.3325 57.0312Z" fill="#CD7D69" mask="url(#path-11-outside-1_8_61)"/>
</svg>
