<svg width="90" height="90" viewBox="0 0 90 90" fill="none" xmlns="http://www.w3.org/2000/svg">
<path fill-rule="evenodd" clip-rule="evenodd" d="M64.6875 39.375C64.6875 42.6991 64.0328 45.9906 62.7607 49.0616C61.4886 52.1327 59.6241 54.9231 57.2736 57.2736C54.9232 59.6241 52.1327 61.4886 49.0617 62.7607C45.9906 64.0327 42.6991 64.6875 39.375 64.6875C36.0509 64.6875 32.7594 64.0327 29.6883 62.7607C26.6173 61.4886 23.8268 59.6241 21.4764 57.2736C19.1259 54.9231 17.2614 52.1327 15.9893 49.0616C14.7172 45.9906 14.0625 42.6991 14.0625 39.375C14.0625 32.6617 16.7293 26.2233 21.4764 21.4763C26.2234 16.7293 32.6617 14.0625 39.375 14.0625C46.0883 14.0625 52.5266 16.7293 57.2736 21.4763C62.0207 26.2233 64.6875 32.6617 64.6875 39.375ZM60.075 66.0375C53.2934 71.3023 44.7602 73.7848 36.2126 72.9795C27.6651 72.1742 19.7457 68.1417 14.0667 61.7028C8.38775 55.264 5.3761 46.9029 5.64489 38.3217C5.91367 29.7405 9.44268 21.5843 15.5135 15.5135C21.5843 9.44265 29.7405 5.91364 38.3217 5.64486C46.9029 5.37607 55.264 8.38772 61.7029 14.0667C68.1417 19.7457 72.1742 27.665 72.9795 36.2126C73.7849 44.7602 71.3024 53.2933 66.0375 60.075L81.7312 75.7687C82.1457 76.1549 82.4782 76.6207 82.7088 77.1382C82.9393 77.6557 83.0633 78.2143 83.0733 78.7808C83.0833 79.3472 82.9791 79.9099 82.7669 80.4352C82.5548 80.9605 82.2389 81.4377 81.8383 81.8383C81.4377 82.2389 80.9605 82.5547 80.4352 82.7669C79.9099 82.9791 79.3473 83.0833 78.7808 83.0733C78.2144 83.0633 77.6557 82.9393 77.1382 82.7087C76.6207 82.4782 76.155 82.1457 75.7688 81.7312L60.075 66.0375Z" fill="#D9D9D9"/>
</svg>
